<svg width="72" height="82" viewBox="0 0 72 82" fill="none" xmlns="http://www.w3.org/2000/svg">
<path fill-rule="evenodd" clip-rule="evenodd" d="M5.35042 12.7976H20.4901L21.0122 14.3638L17.8798 16.452L19.9681 19.5844L17.8798 22.7167L21.0122 24.805V25.8491H5.35042L7.96072 19.0623L5.35042 12.7976Z" stroke="#EF7F1A" stroke-width="2.08824" stroke-miterlimit="22.9256" stroke-linecap="round" stroke-linejoin="round"/>
<path fill-rule="evenodd" clip-rule="evenodd" d="M66.4313 12.7976H50.7695L50.2475 14.3638L52.8578 16.452L51.2916 19.5844L52.8578 22.7167L50.2475 24.805V25.8491H66.4313L63.299 19.0623L66.4313 12.7976Z" stroke="#EF7F1A" stroke-width="2.08824" stroke-miterlimit="22.9256" stroke-linecap="round" stroke-linejoin="round"/>
<path fill-rule="evenodd" clip-rule="evenodd" d="M35.6298 1.83447L38.2401 4.44477L41.8945 2.87859L43.4607 6.01094H47.1151L47.6372 9.66536L50.7695 10.7095L50.2475 14.3639L52.8578 16.4521L51.2916 19.5845L52.8578 22.7168L50.2475 24.8051L50.7695 28.4595L47.6372 29.5036L47.1151 33.158H43.4607L41.8945 36.2904L38.2401 34.7242L35.6298 37.3345L33.0195 34.7242L29.3651 36.2904L27.7989 33.158H24.1445L23.6225 29.5036L19.9681 28.4595L21.0122 24.8051L17.8798 22.7168L19.9681 19.5845L17.8798 16.4521L21.0122 14.3639L19.9681 10.7095L23.6225 9.66536L24.1445 6.01094H27.7989L29.3651 2.87859L33.0195 4.44477L35.6298 1.83447Z" stroke="#EF7F1A" stroke-width="2.08824" stroke-miterlimit="22.9256" stroke-linecap="round" stroke-linejoin="round"/>
<path fill-rule="evenodd" clip-rule="evenodd" d="M35.6298 6.53296L37.7181 8.62119L39.8063 7.57708L41.3725 9.66531H43.9828V12.2756L46.5931 13.3197L46.071 15.408L48.1592 17.4962L46.5931 19.5844L48.1592 21.6727L46.071 23.2388L46.5931 25.8491L43.9828 26.8933V29.5035L41.3725 28.9815L39.8063 31.5918L37.7181 30.5477L35.6298 32.1138L33.5416 30.5477L31.4534 31.5918L29.8872 29.5035H27.2769V26.8933L24.6666 25.8491L25.1887 23.2388L23.1004 21.6727L24.1445 19.5844L23.1004 17.4962L25.1887 15.93L24.6666 13.3197L26.7548 12.2756L27.2769 9.66531H29.8872L31.4534 7.57708L33.5416 8.62119L35.6298 6.53296Z" stroke="#EF7F1A" stroke-width="1.04412" stroke-miterlimit="22.9256" stroke-linecap="round" stroke-linejoin="round"/>
<path fill-rule="evenodd" clip-rule="evenodd" d="M33.0195 14.3638V11.2314H39.2842V14.3638H37.7181V24.805H39.2842V27.4153H33.0195V24.805H34.5857V14.3638H33.0195Z" stroke="#EF7F1A" stroke-width="1.04412" stroke-miterlimit="22.9256" stroke-linecap="round" stroke-linejoin="round"/>
<path fill-rule="evenodd" clip-rule="evenodd" d="M26.7548 39.4226L27.799 40.9888L29.8872 41.5108L28.8431 43.077V45.1653L26.7548 44.6432L24.6666 45.1653V43.077L23.6225 41.5108L25.1887 40.9888L26.7548 39.4226Z" stroke="#EF7F1A" stroke-width="1.04412" stroke-miterlimit="22.9256" stroke-linecap="round" stroke-linejoin="round"/>
<path fill-rule="evenodd" clip-rule="evenodd" d="M36.1519 40.4668L37.196 42.033L39.2842 43.0771L38.2401 44.6433V46.7315L36.1519 46.2094L34.0637 46.7315V44.6433L33.0195 43.0771L34.5857 42.033L36.1519 40.4668Z" stroke="#EF7F1A" stroke-width="1.04412" stroke-miterlimit="22.9256" stroke-linecap="round" stroke-linejoin="round"/>
<path fill-rule="evenodd" clip-rule="evenodd" d="M45.5489 38.9006L46.5931 40.4668L48.6813 40.9889L47.6372 42.555V44.6433L45.5489 44.1212L43.4607 44.6433V43.0771L42.4166 40.9889L43.9828 40.4668L45.5489 38.9006Z" stroke="#EF7F1A" stroke-width="1.04412" stroke-miterlimit="22.9256" stroke-linecap="round" stroke-linejoin="round"/>
<path fill-rule="evenodd" clip-rule="evenodd" d="M41.3725 48.2976L42.4166 50.3858L44.5048 50.9079L43.4607 52.4741V54.5623L41.3725 54.0403L39.2842 54.5623V52.4741L38.2401 50.9079L40.3284 50.3858L41.3725 48.2976Z" stroke="#EF7F1A" stroke-width="1.04412" stroke-miterlimit="22.9256" stroke-linecap="round" stroke-linejoin="round"/>
<path fill-rule="evenodd" clip-rule="evenodd" d="M30.9313 48.2976L32.4975 49.8638L34.5857 50.9079L33.0195 52.4741V54.5623L31.4534 54.0403L29.3651 54.5623V52.4741L27.799 50.9079L29.8872 50.3858L30.9313 48.2976Z" stroke="#EF7F1A" stroke-width="1.04412" stroke-miterlimit="22.9256" stroke-linecap="round" stroke-linejoin="round"/>
<path fill-rule="evenodd" clip-rule="evenodd" d="M26.2328 70.7462C26.2328 68.1359 26.2328 63.9594 25.7107 61.3491C25.1887 58.7389 24.1445 57.1727 23.1004 56.1286C22.0563 55.0844 21.5342 54.0403 20.4901 52.9962C19.446 51.9521 18.4019 50.908 17.3578 49.3418C15.7916 47.7756 13.7034 45.1653 12.6592 44.1212C11.0931 43.0771 10.049 43.5992 9.52689 43.5992C9.00483 44.1212 8.48277 44.6433 9.00483 45.1653C9.00483 45.6874 9.00483 46.2094 10.049 47.7756C11.0931 49.3418 12.1372 50.908 12.6592 52.4742C13.7034 54.0403 13.7034 55.0844 13.7034 55.6065C13.1813 56.1286 12.6592 56.1286 11.6151 54.5624C10.571 52.9962 9.00483 50.3859 7.96072 48.2977C6.9166 46.2094 6.39454 45.1653 6.39454 43.0771C5.87248 40.9889 5.87248 37.8565 5.35042 35.7683C5.35042 34.2021 4.82836 32.6359 4.3063 32.1139C3.78424 31.5918 2.74013 31.5918 2.21807 31.5918C1.69601 32.1139 1.17395 32.6359 1.17395 33.158C1.17395 34.2021 1.17395 34.7242 1.69601 37.8565C1.69601 40.9889 2.21807 46.7315 2.21807 49.3418C2.74013 52.4742 2.74013 52.4741 4.82836 55.0844C6.9166 57.6947 10.571 61.8712 12.6592 64.4815C14.2254 67.0918 14.2254 67.0918 14.7475 68.1359C14.7475 68.658 14.7475 69.7021 14.7475 70.7462H26.2328Z" stroke="#EF7F1A" stroke-width="2.08824" stroke-miterlimit="22.9256" stroke-linecap="round" stroke-linejoin="round"/>
<path d="M4.82836 33.68C5.35042 33.68 5.35042 33.158 5.87248 33.158C6.39454 33.158 6.9166 33.158 7.43866 33.68L7.96071 34.2021C7.96071 34.7241 8.48277 35.2462 8.48277 36.8124C9.00483 38.3785 9.52689 40.9888 10.0489 43.5991" stroke="#EF7F1A" stroke-width="2.08824" stroke-miterlimit="22.9256" stroke-linecap="round" stroke-linejoin="round"/>
<path d="M8.48277 35.2463C8.48277 35.2463 9.00483 35.2463 9.52689 35.2463C9.52689 35.2463 10.0489 35.2463 10.571 35.7684C10.571 35.7684 11.0931 36.2905 11.0931 36.8125C11.6151 37.3346 11.6151 38.3787 12.1372 39.9449C12.1372 40.989 12.6592 43.0772 13.1813 45.1655" stroke="#EF7F1A" stroke-width="2.08824" stroke-miterlimit="22.9256" stroke-linecap="round" stroke-linejoin="round"/>
<path d="M27.7989 70.7463H12.1372V80.6655H27.7989V70.7463Z" stroke="#EF7F1A" stroke-width="2.08824" stroke-miterlimit="22.9256" stroke-linecap="round" stroke-linejoin="round"/>
<path fill-rule="evenodd" clip-rule="evenodd" d="M44.5048 70.7463C44.5048 68.6581 44.5048 64.4816 45.0269 61.3492C45.549 58.739 46.5931 57.6948 47.6372 56.6507C48.6813 55.0845 49.7254 54.0404 50.7695 53.5184C51.8137 52.4742 52.3357 51.4301 53.9019 49.864C55.4681 47.7757 57.5563 45.6875 58.6004 44.6434C60.1666 43.5992 61.2107 43.5992 61.7328 44.1213C62.2548 44.1213 62.7769 44.6434 62.7769 45.1654C62.2548 45.6875 62.2548 46.7316 61.2107 47.7757C60.6887 49.3419 59.1225 51.4301 58.6004 52.9963C57.5563 54.5625 57.5563 55.6066 57.5563 56.1287C58.0784 56.6507 58.6004 56.6507 59.6445 55.0845C60.6887 53.5184 62.2548 50.386 63.299 48.2978C64.3431 46.2095 64.8651 45.1654 64.8651 43.0772C65.3872 40.989 65.9092 38.3787 65.9092 36.2904C66.4313 34.2022 66.4313 33.1581 66.9534 32.114C67.4754 31.5919 68.5195 31.5919 69.0416 32.114C69.5637 32.114 70.0857 32.636 70.0857 33.6801C70.6078 34.2022 70.0857 35.2463 70.0857 38.3787C69.5637 41.511 69.5637 46.7316 69.0416 49.3419C68.5195 52.4742 68.5195 52.9963 66.4313 55.0845C64.3431 57.6948 60.6887 62.3934 58.6004 64.4816C57.0342 67.0919 56.5122 67.0919 56.5122 68.136C56.5122 68.6581 56.5122 69.7022 56.5122 70.7463H44.5048V70.7463Z" stroke="#EF7F1A" stroke-width="2.08824" stroke-miterlimit="22.9256" stroke-linecap="round" stroke-linejoin="round"/>
<path d="M66.4313 33.6801C65.9092 33.6801 65.9092 33.6801 65.3872 33.6801C64.8651 33.1581 64.3431 33.1581 64.3431 33.6801C63.821 33.6801 63.2989 34.2022 63.2989 34.7242C63.2989 34.7242 63.2989 35.2463 62.7769 36.8125C62.2548 38.3786 61.7328 40.9889 61.2107 43.5992" stroke="#EF7F1A" stroke-width="2.08824" stroke-miterlimit="22.9256" stroke-linecap="round" stroke-linejoin="round"/>
<path d="M62.7769 35.7683C62.7769 35.7683 62.2548 35.7683 61.7328 35.7683C61.7328 35.7683 61.2107 35.7683 60.6887 35.7683C60.6887 36.2904 60.1666 36.2904 60.1666 36.8124C59.6445 37.8565 59.6445 38.3786 59.1225 39.9448C58.6004 41.511 58.6004 43.0771 58.0784 45.1654" stroke="#EF7F1A" stroke-width="2.08824" stroke-miterlimit="22.9256" stroke-linecap="round" stroke-linejoin="round"/>
<path d="M58.6004 70.7463H42.4166V80.6655H58.6004V70.7463Z" stroke="#EF7F1A" stroke-width="2.08824" stroke-miterlimit="22.9256" stroke-linecap="round" stroke-linejoin="round"/>
</svg>
