<svg width="66" height="66" viewBox="0 0 66 66" fill="none" xmlns="http://www.w3.org/2000/svg">
<path d="M42.625 42.75C49.51 42.75 55.5547 39.1577 58.9893 33.7519C58.5914 47.7635 47.1078 59 33 59C18.6406 59 7 47.3593 7 33C7 18.8921 18.2363 7.4087 32.2479 7.01067C26.8422 10.4453 23.25 16.49 23.25 23.375C23.25 34.0756 31.9243 42.75 42.625 42.75ZM59.2696 33.4052C59.2696 33.4053 59.2686 33.4051 59.2666 33.4046C59.2687 33.4049 59.2696 33.4052 59.2696 33.4052ZM32.5948 6.73035C32.5948 6.73032 32.5951 6.73129 32.5954 6.73333C32.5949 6.7314 32.5947 6.73038 32.5948 6.73035Z" stroke="white" stroke-width="3"/>
</svg>
