<svg width="66" height="66" viewBox="0 0 66 66" fill="none" xmlns="http://www.w3.org/2000/svg">
<g clip-path="url(#clip0_27_17)">
<path fill-rule="evenodd" clip-rule="evenodd" d="M33 14.4395C22.7483 14.4395 14.4375 22.7503 14.4375 33.002C14.4375 43.2536 22.7483 51.5645 33 51.5645C43.2517 51.5645 51.5625 43.2536 51.5625 33.002C51.5625 22.7503 43.2517 14.4395 33 14.4395ZM33 49.502C23.8868 49.502 16.5 42.1141 16.5 33.002C16.5 23.8898 23.8868 16.502 33 16.502C42.1132 16.502 49.5 23.8898 49.5 33.002C49.5 42.1141 42.1132 49.502 33 49.502Z" fill="#BFFB1B"/>
<path fill-rule="evenodd" clip-rule="evenodd" d="M64.9688 31.9688H54.6562C54.086 31.9688 53.625 32.4297 53.625 33C53.625 33.5703 54.086 34.0312 54.6562 34.0312H64.9688C65.539 34.0312 66 33.5703 66 33C66 32.4297 65.539 31.9688 64.9688 31.9688Z" fill="#BFFB1B"/>
<path fill-rule="evenodd" clip-rule="evenodd" d="M11.815 37.6086L7.83131 38.676C7.28063 38.8255 6.95372 39.3906 7.10222 39.9413C7.24969 40.491 7.81378 40.8179 8.3655 40.6684L12.3492 39.601C12.8989 39.4535 13.2258 38.8905 13.0783 38.3377C12.9308 37.7881 12.3647 37.4612 11.815 37.6086Z" fill="#BFFB1B"/>
<path fill-rule="evenodd" clip-rule="evenodd" d="M50.8613 22.6874C51.1469 23.1814 51.777 23.3505 52.271 23.0638L61.2016 17.9076C61.6956 17.624 61.8647 16.9928 61.578 16.4999C61.2944 16.0059 60.6633 15.8368 60.1703 16.1235L51.2397 21.2797C50.7458 21.5654 50.5777 22.1934 50.8613 22.6874Z" fill="#BFFB1B"/>
<path fill-rule="evenodd" clip-rule="evenodd" d="M18.4161 47.5848C18.0139 47.1816 17.3611 47.1837 16.9579 47.5848L14.0415 50.5012C13.6383 50.9044 13.6393 51.5582 14.0425 51.9594C14.4447 52.3626 15.0965 52.3626 15.4997 51.9594L18.4161 49.043C18.8193 48.6419 18.8193 47.987 18.4161 47.5848Z" fill="#BFFB1B"/>
<path fill-rule="evenodd" clip-rule="evenodd" d="M43.3125 15.1389C43.8065 15.4225 44.4366 15.2555 44.7222 14.7605L49.8785 5.82984C50.1641 5.33587 49.995 4.70475 49.5 4.42116C49.0071 4.1355 48.378 4.30462 48.0924 4.79756L42.9371 13.7302C42.6504 14.2242 42.8196 14.8522 43.3125 15.1389Z" fill="#BFFB1B"/>
<path fill-rule="evenodd" clip-rule="evenodd" d="M27.6623 52.9215C27.1136 52.774 26.5485 53.103 26.399 53.6506L25.3316 57.6343C25.1842 58.186 25.5131 58.7501 26.0628 58.8976C26.6124 59.0471 27.1765 58.7202 27.324 58.1685L28.3914 54.1848C28.5409 53.6372 28.214 53.071 27.6623 52.9215Z" fill="#BFFB1B"/>
<path fill-rule="evenodd" clip-rule="evenodd" d="M33 12.375C33.5713 12.375 34.0323 11.914 34.0333 11.3438V1.03125C34.0333 0.460969 33.5724 0 33 0C32.4318 0 31.9708 0.460969 31.9698 1.03125L31.9708 11.3438C31.9708 11.914 32.4318 12.375 33 12.375Z" fill="#BFFB1B"/>
<path fill-rule="evenodd" clip-rule="evenodd" d="M39.6021 53.6507C39.4567 53.1011 38.8915 52.7742 38.3388 52.9216C37.7891 53.0691 37.4643 53.6342 37.6097 54.1849L38.677 58.1686C38.8255 58.7203 39.3917 59.0452 39.9424 58.8977C40.4931 58.7502 40.8179 58.1872 40.6694 57.6344L39.6021 53.6507Z" fill="#BFFB1B"/>
<path fill-rule="evenodd" clip-rule="evenodd" d="M21.2819 14.7594C21.5655 15.2534 22.1966 15.4225 22.6875 15.1379C23.1825 14.8522 23.3527 14.2232 23.067 13.7282L17.9108 4.79756C17.6261 4.30462 16.995 4.1355 16.5 4.42116C16.0081 4.70475 15.839 5.33587 16.1236 5.82881L21.2819 14.7594Z" fill="#BFFB1B"/>
<path fill-rule="evenodd" clip-rule="evenodd" d="M49.0442 47.5828C48.644 47.1817 47.9902 47.1817 47.586 47.5828C47.1828 47.9861 47.1859 48.6399 47.586 49.041L50.5024 51.9574C50.9066 52.3627 51.5594 52.3586 51.9616 51.9574C52.3648 51.5542 52.3648 50.9045 51.9605 50.4992L49.0442 47.5828Z" fill="#BFFB1B"/>
<path fill-rule="evenodd" clip-rule="evenodd" d="M4.79944 17.9076L13.7321 23.0618C14.224 23.3475 14.8541 23.1783 15.1377 22.6875C15.4234 22.1925 15.2563 21.5634 14.7623 21.2777L5.83069 16.1215C5.33775 15.8348 4.70662 16.005 4.42097 16.5C4.1384 16.9919 4.3065 17.622 4.79944 17.9076Z" fill="#BFFB1B"/>
<path fill-rule="evenodd" clip-rule="evenodd" d="M53.6528 39.5999L57.6365 40.6672C58.1883 40.8168 58.7524 40.4857 58.8998 39.9361C59.0483 39.3864 58.7224 38.8223 58.1707 38.6749L54.187 37.6075C53.6394 37.458 53.0722 37.7849 52.9237 38.3366C52.7752 38.8873 53.1052 39.4514 53.6528 39.5999Z" fill="#BFFB1B"/>
<path fill-rule="evenodd" clip-rule="evenodd" d="M12.375 33.0001C12.376 32.4278 11.9161 31.9689 11.3458 31.9668L1.03125 31.9689C0.462 31.9689 0 32.4278 0 33.0001C0.00103125 33.5683 0.462 34.0314 1.03228 34.0314L11.3458 34.0293C11.914 34.0293 12.376 33.5683 12.375 33.0001Z" fill="#BFFB1B"/>
<path fill-rule="evenodd" clip-rule="evenodd" d="M54.187 28.3893L58.1708 27.322C58.7225 27.1745 59.0473 26.6073 58.8988 26.0566C58.7524 25.509 58.1893 25.1821 57.6366 25.3296L53.6529 26.3969C53.1032 26.5423 52.7763 27.1095 52.9238 27.6602C53.0692 28.2099 53.6374 28.5347 54.187 28.3893Z" fill="#BFFB1B"/>
<path fill-rule="evenodd" clip-rule="evenodd" d="M15.1387 43.3126C14.8552 42.8176 14.2251 42.6474 13.7311 42.9321L4.79944 48.0904C4.3065 48.376 4.13531 49.0051 4.42097 49.5001C4.70662 49.992 5.33775 50.1611 5.83069 49.8765L14.7613 44.7182C15.2532 44.4346 15.4244 43.8066 15.1387 43.3126Z" fill="#BFFB1B"/>
<path fill-rule="evenodd" clip-rule="evenodd" d="M47.586 18.4131C47.9872 18.8183 48.6399 18.8142 49.0442 18.4131L51.9606 15.4967C52.3648 15.0935 52.3628 14.4417 51.9585 14.0385C51.5584 13.6353 50.9056 13.6353 50.5024 14.0385L47.586 16.9549C47.1818 17.356 47.1838 18.0109 47.586 18.4131Z" fill="#BFFB1B"/>
<path fill-rule="evenodd" clip-rule="evenodd" d="M22.6875 50.8612C22.1935 50.5755 21.5655 50.7446 21.2799 51.2355L16.1236 60.1703C15.84 60.6622 16.005 61.2923 16.5 61.5779C16.994 61.8595 17.6241 61.6903 17.9097 61.1995L23.0639 52.2668C23.3485 51.7759 23.1825 51.1458 22.6875 50.8612Z" fill="#BFFB1B"/>
<path fill-rule="evenodd" clip-rule="evenodd" d="M38.3398 13.0763C38.8874 13.2258 39.4515 12.8948 39.6031 12.3472L40.6704 8.36348C40.8179 7.81176 40.4889 7.24561 39.9393 7.1002C39.3917 6.95067 38.8255 7.27758 38.6781 7.82929L37.6107 11.813C37.4591 12.3606 37.7902 12.9268 38.3398 13.0763Z" fill="#BFFB1B"/>
<path fill-rule="evenodd" clip-rule="evenodd" d="M33 53.625C32.4297 53.6229 31.9708 54.0839 31.9688 54.6542L31.9708 64.9708C31.9708 65.537 32.4277 66 33 66C33.5703 66 34.0312 65.537 34.0323 64.9688L34.0292 54.6542C34.0292 54.086 33.5723 53.625 33 53.625Z" fill="#BFFB1B"/>
<path fill-rule="evenodd" clip-rule="evenodd" d="M26.4 12.3472C26.5433 12.8969 27.1126 13.2238 27.6633 13.0763C28.2119 12.9309 28.5357 12.3637 28.3924 11.813L27.325 7.82929C27.1755 7.27758 26.6104 6.95067 26.0597 7.1002C25.5121 7.24767 25.1831 7.81073 25.3326 8.36348L26.4 12.3472Z" fill="#BFFB1B"/>
<path fill-rule="evenodd" clip-rule="evenodd" d="M44.7181 51.2385C44.4345 50.7466 43.8075 50.5754 43.3125 50.8611C42.8185 51.1447 42.6515 51.7738 42.934 52.2688L48.0944 61.1994C48.378 61.6933 49.005 61.8645 49.5 61.5778C49.994 61.2922 50.1621 60.6611 49.8785 60.1681L44.7181 51.2385Z" fill="#BFFB1B"/>
<path fill-rule="evenodd" clip-rule="evenodd" d="M16.9568 18.4128C17.3559 18.8201 18.0118 18.816 18.415 18.4128C18.8182 18.0137 18.8141 17.3609 18.415 16.9546L15.4987 14.0382C15.0934 13.635 14.4416 13.637 14.0394 14.0403C13.6373 14.4414 13.6352 15.0932 14.0405 15.4964L16.9568 18.4128Z" fill="#BFFB1B"/>
<path fill-rule="evenodd" clip-rule="evenodd" d="M61.2026 48.0902L52.2689 42.936C51.776 42.6524 51.1479 42.8174 50.8633 43.3145C50.5766 43.8064 50.7478 44.4344 51.2387 44.7201L60.1734 49.8763C60.6654 50.1599 61.2934 49.9949 61.579 49.4999C61.8626 49.0049 61.6935 48.3758 61.2026 48.0902Z" fill="#BFFB1B"/>
<path fill-rule="evenodd" clip-rule="evenodd" d="M12.3482 26.3981L8.36344 25.3297C7.81069 25.1822 7.2466 25.5112 7.10016 26.0608C6.95166 26.6084 7.2765 27.1746 7.82925 27.3241L11.813 28.3894C12.3606 28.54 12.9278 28.21 13.0763 27.6603C13.2258 27.1148 12.8958 26.5507 12.3482 26.3981Z" fill="#BFFB1B"/>
<path fill-rule="evenodd" clip-rule="evenodd" d="M33 20.627C32.4297 20.627 31.9688 21.0879 31.9688 21.6582C31.9688 22.2285 32.4297 22.6895 33 22.6895C38.6946 22.6895 43.3125 27.3064 43.3125 33.0019C43.3125 33.5722 43.7735 34.0332 44.3438 34.0332C44.914 34.0332 45.375 33.5722 45.375 33.0019C45.375 26.1679 39.8341 20.627 33 20.627Z" fill="#BFFB1B"/>
</g>
<defs>
<clipPath id="clip0_27_17">
<rect width="66" height="66" fill="white"/>
</clipPath>
</defs>
</svg>
