<svg width="195" height="195" viewBox="0 0 195 195" fill="none" xmlns="http://www.w3.org/2000/svg">
<g clip-path="url(#clip0_124_230)">
<path d="M184.356 165.849L160.471 168.123L158.197 192.008L100.761 134.572L126.92 108.413L184.356 165.849Z" fill="#FFD652"/>
<path d="M131.637 152.75L136.124 137.784L151.58 140.066L151.619 133.113L126.92 108.413L100.761 134.572L115.457 149.268L117.45 146.206L131.637 152.75Z" fill="#FB9D46"/>
<path d="M10.6443 165.849L34.5282 168.123L36.8031 192.008L94.2386 134.572L68.0798 108.413L10.6443 165.849Z" fill="#FFD652"/>
<path d="M68.0799 108.413L42.85 133.643L42.8279 139.552L58.3044 137.417L62.65 152.424L76.8975 146.015L79.1936 149.617L94.2386 134.572L68.0799 108.413Z" fill="#FB9D46"/>
<path d="M35.5752 36.8444L49.3329 34.9191L49.4121 21.027L63.1553 23.0558L67.1452 9.74869L79.7599 15.567L87.3371 3.9231L97.8019 13.0595L108.352 4.0225L115.819 15.7373L128.489 10.0385L132.353 23.3822L146.114 21.4833L146.063 35.3754L159.802 37.4313L155.838 50.7453L168.441 56.5884L160.887 68.2472L171.334 77.4041L160.801 86.4621L168.245 98.1917L155.587 103.915L159.425 117.267L145.667 119.192L145.588 133.084L131.845 131.055L127.855 144.363L115.24 138.544L107.663 150.188L97.1979 141.051L86.647 150.089L79.1803 138.374L66.5111 144.073L62.6473 130.729L48.8854 132.627L48.9372 118.736L35.1981 116.68L39.1617 103.366L26.558 97.5229L34.1127 85.8641L23.6658 76.7072L34.1988 67.6493L26.7549 55.9196L39.4127 50.1961L35.5752 36.8444Z" fill="#458FDE"/>
<path d="M97.4997 134.961C129.479 134.961 155.404 109.036 155.404 77.0566C155.404 45.0771 129.479 19.1526 97.4997 19.1526C65.5202 19.1526 39.5957 45.0771 39.5957 77.0566C39.5957 109.036 65.5202 134.961 97.4997 134.961Z" fill="#FB9D46"/>
<path d="M97.4998 126.918C125.038 126.918 147.362 104.595 147.362 77.0566C147.362 49.5187 125.038 27.1948 97.4998 27.1948C69.9618 27.1948 47.6379 49.5187 47.6379 77.0566C47.6379 104.595 69.9618 126.918 97.4998 126.918Z" fill="#FFD652"/>
<path d="M123.235 44.031H71.7649L54.8762 69.7663L97.4999 120.432L140.123 69.7663L123.235 44.031Z" fill="#FF7452"/>
<path d="M97.1632 44.031H71.7649L54.8762 69.7663L97.4999 120.432L98.6672 119.044L83.8282 68.9619L97.1632 44.031Z" fill="#E24642"/>
<path d="M170.684 13.4705C165.991 19.4538 159.3 20.5114 157.816 20.7083C159.3 20.9052 165.991 21.9629 170.684 27.9461C173.965 32.1321 174.564 36.5512 174.705 38.4011C174.846 36.5512 175.445 32.1321 178.726 27.9461C183.419 21.9629 190.11 20.9052 191.594 20.7083C190.11 20.5114 183.419 19.4538 178.726 13.4705C175.445 9.28453 174.846 4.86545 174.705 3.01562C174.564 4.86545 173.965 9.28453 170.684 13.4705Z" fill="#E24642"/>
<path d="M24.3158 13.4705C29.0084 19.4538 35.6996 20.5114 37.1835 20.7083C35.6996 20.9052 29.0087 21.9629 24.3158 27.9461C21.0347 32.1321 20.4356 36.5512 20.2947 38.4011C20.1538 36.5512 19.5547 32.1321 16.2736 27.9461C11.5811 21.9629 4.88983 20.9052 3.40601 20.7083C4.88983 20.5114 11.5807 19.4538 16.2736 13.4705C19.5547 9.28453 20.1538 4.86545 20.2947 3.01562C20.4356 4.86545 21.0347 9.28453 24.3158 13.4705Z" fill="#E24642"/>
<path d="M101.521 165.468C106.213 171.452 112.905 172.509 114.389 172.706C112.905 172.903 106.214 173.961 101.521 179.944C98.2398 184.13 97.6404 188.549 97.4998 190.399C97.3589 188.549 96.7598 184.13 93.4787 179.944C88.7862 173.961 82.0949 172.903 80.6111 172.706C82.0949 172.509 88.7858 171.452 93.4787 165.468C96.7598 161.282 97.3589 156.863 97.4998 155.013C97.6407 156.863 98.2398 161.282 101.521 165.468Z" fill="#E24642"/>
<path d="M149.113 126.341C148.967 126.195 148.81 126.067 148.644 125.958L148.668 121.817L159.843 120.253C160.708 120.132 161.478 119.642 161.954 118.909C162.43 118.176 162.565 117.273 162.323 116.433L159.206 105.588L169.487 100.939C170.283 100.579 170.884 99.8916 171.134 99.0541C171.385 98.2169 171.259 97.312 170.791 96.5747L164.744 87.0472L173.3 79.6898C173.962 79.12 174.345 78.2909 174.349 77.4176C174.353 76.5443 173.979 75.7113 173.321 75.1355L164.835 67.6973L170.971 58.2277C171.446 57.4946 171.58 56.5915 171.338 55.7517C171.096 54.912 170.502 54.2188 169.709 53.8513L159.472 49.105L162.692 38.2898C162.941 37.4527 162.815 36.5482 162.346 35.8108C161.877 35.0739 161.111 34.5765 160.247 34.447L149.087 32.7773L149.13 21.4933C149.133 20.6196 148.757 19.7874 148.099 19.2119C147.442 18.6365 146.569 18.3763 145.702 18.494L134.523 20.0361L131.385 9.19767C131.142 8.35865 130.547 7.66549 129.754 7.29872C128.961 6.93272 128.048 6.92738 127.251 7.28577L116.96 11.9143L110.896 2.40052C110.426 1.66394 109.66 1.16692 108.796 1.03819C107.932 0.910223 107.054 1.16273 106.391 1.73097L97.821 9.07199L89.3206 1.65137C88.6625 1.07666 87.7873 0.815389 86.922 0.936121C86.0567 1.05647 85.2858 1.54625 84.8094 2.27826L78.6547 11.7365L68.4082 7.01041C67.6152 6.64441 66.7015 6.6406 65.9052 7.00013C65.1092 7.35966 64.507 8.04634 64.2561 8.88309L61.015 19.6918L49.852 18.0438C48.9886 17.9174 48.1104 18.1695 47.4473 18.7389C46.7846 19.3079 46.4007 20.1367 46.3958 21.01L46.3314 32.2944L35.1563 33.8586C34.291 33.98 33.5209 34.4702 33.0452 35.203C32.5691 35.9357 32.4343 36.8388 32.6761 37.6789L35.7935 48.5238L25.5118 53.173C24.7162 53.5333 24.1149 54.2203 23.8646 55.0582C23.6144 55.895 23.7397 56.7999 24.2082 57.5372L30.2547 67.0643L21.6995 74.4218C21.0371 74.9915 20.654 75.8206 20.6498 76.6939C20.6456 77.5672 21.0204 78.4002 21.6777 78.976L30.1636 86.4142L24.0273 95.8842C23.5523 96.6173 23.4186 97.5204 23.6605 98.3601C23.9027 99.1999 24.4972 99.8931 25.2898 100.261L35.5272 105.006L32.3075 115.822C32.058 116.659 32.1845 117.563 32.6533 118.301C33.1221 119.038 33.8876 119.535 34.7518 119.665L45.9117 121.335L45.8926 126.401C45.7574 126.497 45.6268 126.603 45.5053 126.724L36.6591 135.57C35.4815 136.748 35.4815 138.657 36.6591 139.835C37.2479 140.424 38.0199 140.718 38.7916 140.718C39.5632 140.718 40.3352 140.424 40.924 139.835L46.411 134.348C46.5504 134.549 46.7119 134.735 46.8993 134.899C47.5566 135.475 48.4311 135.736 49.2971 135.617L60.4753 134.075L63.6139 144.913C63.8569 145.752 64.4518 146.445 65.2448 146.812C66.0381 147.178 66.9514 147.184 67.7477 146.825L78.0385 142.196L79.7169 144.829L39.1979 185.348L37.5305 167.838C37.3934 166.398 36.2539 165.259 34.8143 165.122L17.3044 163.454L30.8716 149.887C32.0492 148.709 32.0492 146.8 30.8716 145.622C29.694 144.445 27.7844 144.445 26.6068 145.622L8.5119 163.717C7.68582 164.543 7.41122 165.771 7.80655 166.87C8.20188 167.969 9.19592 168.741 10.3587 168.852L31.7625 170.891L33.8008 192.294C34.0373 194.779 37.1676 195.909 38.9359 194.141L83.0384 150.038L84.1044 151.711C84.574 152.447 85.3399 152.944 86.2041 153.073C87.069 153.202 87.9461 152.948 88.6092 152.38L97.1792 145.039L105.68 152.461C106.233 152.943 106.938 153.205 107.663 153.205C107.801 153.205 107.939 153.196 108.078 153.176C108.944 153.056 109.714 152.566 110.191 151.834L111.597 149.673L156.065 194.141C157.832 195.907 160.963 194.781 161.2 192.294L163.239 170.891L184.642 168.852C185.805 168.741 186.799 167.969 187.194 166.87C187.59 165.771 187.315 164.543 186.489 163.717L149.113 126.341ZM107.029 145.632L99.1814 138.78C98.6135 138.284 97.9059 138.036 97.1979 138.036C96.4994 138.036 95.8005 138.277 95.2361 138.761L87.3234 145.539L86.8336 144.77C86.7845 144.071 86.4954 143.385 85.9603 142.849C85.7562 142.645 85.5288 142.479 85.2881 142.345L81.7233 136.753C80.9182 135.49 79.3083 135.008 77.9429 135.623L68.4413 139.897L65.5433 129.889C65.1267 128.451 63.7175 127.535 62.2345 127.741L51.9136 129.165L51.9525 118.747C51.9582 117.249 50.864 115.974 49.3828 115.753L39.0787 114.211L42.0517 104.226C42.479 102.791 41.7881 101.259 40.4296 100.629L30.9775 96.2479L36.6428 87.5042C37.457 86.2477 37.2259 84.5834 36.0997 83.5966L28.2651 76.729L36.164 69.9356C37.2997 68.9587 37.5465 67.2974 36.7437 66.033L31.1611 57.2363L40.654 52.9437C42.0182 52.3267 42.7232 50.8017 42.3099 49.3625L39.4318 39.3501L49.75 37.9059C51.233 37.698 52.339 36.4339 52.3474 34.9364L52.4064 24.5177L62.7132 26.0392C64.1955 26.2582 65.6119 25.3559 66.0423 23.9216L69.0343 13.942L78.4948 18.3059C79.8548 18.9324 81.4689 18.4666 82.2854 17.2121L87.9682 8.47938L95.8162 15.3314C96.9446 16.3167 98.6246 16.3247 99.7618 15.3504L107.675 8.57269L113.274 17.3583C114.079 18.6212 115.689 19.1026 117.055 18.4879L126.556 14.2143L129.454 24.2217C129.871 25.6606 131.282 26.5769 132.763 26.3705L143.084 24.9465L143.045 35.3648C143.039 36.8628 144.134 38.1375 145.615 38.3584L155.919 39.9001L152.946 49.8854C152.519 51.3205 153.209 52.8523 154.568 53.4818L164.02 57.8636L158.355 66.6069C157.541 67.8634 157.772 69.5277 158.898 70.5145L166.733 77.3821L158.834 84.1755C157.698 85.1524 157.451 86.8137 158.254 88.0781L163.837 96.8748L154.344 101.167C152.979 101.784 152.274 103.309 152.688 104.749L155.566 114.762L145.248 116.206C143.765 116.414 142.659 117.678 142.651 119.175L142.591 129.594L132.285 128.072C130.805 127.856 129.386 128.755 128.956 130.19L125.964 140.169L116.503 135.806C115.143 135.178 113.529 135.645 112.712 136.899L107.029 145.632ZM160.186 165.122C158.746 165.259 157.606 166.398 157.47 167.838L155.802 185.348L114.959 144.505L116.345 142.375L126.592 147.101C127.385 147.468 128.298 147.472 129.095 147.112C129.891 146.752 130.493 146.066 130.744 145.229L133.985 134.42L145.148 136.068C146.013 136.196 146.89 135.942 147.553 135.373C147.937 135.042 148.224 134.623 148.402 134.16L177.696 163.454L160.186 165.122Z" fill="black"/>
<path d="M152.112 104.079C152.852 102.586 152.242 100.777 150.75 100.037C149.258 99.2974 147.448 99.9079 146.708 101.4C137.369 120.24 118.513 131.944 97.4995 131.944C67.2343 131.944 42.6115 107.322 42.6115 77.0561C42.6115 46.7905 67.2343 22.1677 97.4995 22.1677C127.765 22.1677 152.387 46.7901 152.387 77.0557C152.387 80.6312 152.042 84.2063 151.36 87.6828C151.04 89.317 152.104 90.9022 153.739 91.2225C155.372 91.5439 156.959 90.4779 157.279 88.8436C158.035 84.9859 158.419 81.0201 158.419 77.0561C158.419 43.4649 131.091 16.1365 97.4991 16.1365C63.9075 16.1365 36.5798 43.4653 36.5798 77.0565C36.5798 110.648 63.9082 137.976 97.4995 137.976C109.067 137.976 120.324 134.719 130.052 128.558C139.517 122.563 147.145 114.098 152.112 104.079Z" fill="black"/>
<path d="M123.235 41.0154H71.7648C70.7487 41.0154 69.8007 41.5269 69.2432 42.3766L52.3544 68.1115C51.6236 69.2258 51.71 70.688 52.5681 71.7075L95.1917 122.373C95.7649 123.055 96.6097 123.448 97.4993 123.448C98.389 123.448 99.2341 123.054 99.8069 122.373L142.431 71.7075C143.289 70.6876 143.375 69.2258 142.644 68.1115L125.756 42.3766C125.198 41.5269 124.251 41.0154 123.235 41.0154ZM71.2598 50.2973L79.6059 65.9463H60.9904L71.2598 50.2973ZM106.459 71.9779L97.5001 106.133L88.5412 71.9779H106.459ZM89.6586 65.9463L97.4997 51.2441L105.341 65.9463H89.6586ZM102.097 47.047H118.284L110.323 62.4717L102.097 47.047ZM84.6325 62.5536L76.3622 47.047H92.902L84.6325 62.5536ZM82.3054 71.9779L92.1037 109.333L60.6781 71.9779H82.3054ZM112.694 71.9779H134.321L102.896 109.333L112.694 71.9779ZM115.317 65.9463L123.546 50.0028L134.009 65.9463H115.317Z" fill="black"/>
<path d="M191.99 17.719C189.943 17.4467 184.783 16.3068 181.099 11.61C178.482 8.27107 177.854 4.64874 177.712 2.78711C177.592 1.21493 176.282 0 174.705 0C173.129 0 171.818 1.21493 171.698 2.78711C171.556 4.64912 170.928 8.27145 168.311 11.61C164.627 16.3072 159.467 17.4471 157.42 17.719C155.921 17.9182 154.801 19.1963 154.801 20.7087C154.801 22.2211 155.921 23.4989 157.42 23.6985C159.467 23.9708 164.627 25.1107 168.311 29.8074C170.928 33.1464 171.556 36.7687 171.698 38.6303C171.818 40.2025 173.128 41.4175 174.705 41.4175C176.282 41.4175 177.593 40.2025 177.712 38.6303C177.855 36.7683 178.483 33.146 181.099 29.8078C184.784 25.1103 189.944 23.9704 191.991 23.6985C193.49 23.4993 194.609 22.2211 194.609 20.7087C194.609 19.1963 193.49 17.9186 191.99 17.719ZM176.352 26.086C175.725 26.8862 175.179 27.6948 174.705 28.5014C174.23 27.6948 173.684 26.8858 173.057 26.0857C171.164 23.6722 168.997 21.9446 166.88 20.7087C168.997 19.4725 171.164 17.7453 173.057 15.3318L173.057 15.3314C173.684 14.5312 174.23 13.7227 174.704 12.916C175.179 13.7227 175.726 14.5316 176.353 15.3318C178.246 17.7453 180.413 19.4728 182.53 20.7087C180.413 21.9446 178.245 23.6726 176.352 26.086Z" fill="black"/>
<path d="M13.9001 29.8074C16.5174 33.1464 17.1458 36.7687 17.2875 38.6303C17.4075 40.2025 18.7176 41.4175 20.2947 41.4175C21.8719 41.4175 23.1824 40.2025 23.302 38.6303C23.444 36.7683 24.0725 33.146 26.6889 29.8078C30.3734 25.1103 35.5332 23.9704 37.5803 23.6985C39.0794 23.4993 40.1987 22.2211 40.1987 20.7087C40.1987 19.1963 39.079 17.9186 37.5803 17.719C35.5332 17.4467 30.3734 16.3068 26.6893 11.61C24.0721 8.27107 23.4437 4.64874 23.302 2.78711C23.182 1.21493 21.8715 0 20.2947 0C18.718 0 17.4071 1.21493 17.2875 2.78711C17.1454 4.64912 16.517 8.27145 13.9005 11.6097C10.2165 16.3072 5.05626 17.4471 3.00877 17.719C1.50972 17.9186 0.390381 19.1963 0.390381 20.7087C0.390381 22.2211 1.5101 23.4989 3.00877 23.6985C5.05626 23.97 10.2165 25.1103 13.9001 29.8074ZM18.6475 15.3314C19.2748 14.5312 19.8206 13.7227 20.2951 12.916C20.7697 13.7227 21.3158 14.5312 21.9427 15.3314L21.9431 15.3318C23.8359 17.7453 26.003 19.4728 28.1202 20.7087C26.003 21.945 23.8356 23.6726 21.9427 26.086C21.3154 26.8862 20.7697 27.6948 20.2951 28.5014C19.8202 27.6948 19.274 26.8858 18.6468 26.0857C16.7543 23.6722 14.5868 21.9446 12.47 20.7087C14.5865 19.4725 16.7543 17.7449 18.6475 15.3314Z" fill="black"/>
<path d="M114.785 169.716C112.738 169.444 107.579 168.304 103.895 163.607C101.277 160.269 100.649 156.646 100.507 154.785C100.387 153.212 99.0767 151.997 97.4999 151.997C95.9228 151.997 94.6123 153.212 94.4927 154.785C94.3506 156.647 93.7222 160.269 91.1057 163.607C87.4213 168.305 82.2614 169.445 80.2143 169.716C78.7153 169.916 77.5959 171.194 77.5959 172.706C77.5959 174.219 78.7157 175.496 80.2143 175.696C82.2618 175.968 87.4217 177.108 91.1053 181.805C93.7226 185.144 94.351 188.766 94.4927 190.628C94.6126 192.2 95.9232 193.415 97.4999 193.415C99.0771 193.415 100.388 192.2 100.507 190.628C100.649 188.766 101.278 185.143 103.894 181.805C107.579 177.108 112.738 175.968 114.785 175.696C116.285 175.497 117.404 174.219 117.404 172.706C117.404 171.194 116.285 169.916 114.785 169.716ZM99.1475 178.084C98.5202 178.884 97.9745 179.693 97.4999 180.499C97.025 179.693 96.4788 178.884 95.8516 178.083C93.9587 175.67 91.7916 173.942 89.6748 172.707C91.792 171.47 93.9595 169.743 95.8523 167.329C96.4796 166.529 97.0254 165.72 97.4999 164.914C97.9745 165.72 98.5206 166.529 99.1475 167.329L99.1479 167.33C101.041 169.743 103.208 171.471 105.325 172.707C103.208 173.942 101.04 175.67 99.1475 178.084Z" fill="black"/>
</g>
<defs>
<clipPath id="clip0_124_230">
<rect width="195" height="195" fill="white"/>
</clipPath>
</defs>
</svg>
