<svg width="186" height="222" viewBox="0 0 186 222" fill="none" xmlns="http://www.w3.org/2000/svg">
<g clip-path="url(#clip0_128_250)">
<mask id="path-1-inside-1_128_250" fill="white">
<path fill-rule="evenodd" clip-rule="evenodd" d="M169.074 17.986C132.702 17.986 96.3188 17.986 59.9354 17.986L19.7207 66.1546C69.5086 66.1546 119.292 66.1546 169.074 66.1546V17.986ZM110.069 68.81H76.238V87.2119H110.069V68.81ZM76.2385 15.3418H110.069V-0.405273H76.2385V15.3418ZM98.8821 36.3447C97.4193 34.8771 95.3902 33.9703 93.1568 33.9703C90.917 33.9703 88.8933 34.8771 87.4257 36.3447C85.9575 37.8017 85.0508 39.8308 85.0508 42.0759C85.0508 44.3209 85.9575 46.3389 87.4194 47.807C88.8822 49.2747 90.9107 50.1814 93.1568 50.1814C95.3631 50.1814 97.3655 49.2964 98.8225 47.8709L98.8821 47.8065C100.345 46.3384 101.256 44.3088 101.256 42.0754C101.256 39.8414 100.344 37.8129 98.8821 36.3447ZM100.76 34.4668C102.703 36.4097 103.906 39.1076 103.906 42.0759C103.906 45.0436 102.703 47.7314 100.76 49.6849L100.668 49.7605C98.7252 51.6602 96.0756 52.8256 93.1568 52.8256C90.188 52.8256 87.5012 51.6268 85.5579 49.6849C83.5991 47.7208 82.3954 45.033 82.3954 42.0759C82.3954 39.1076 83.6039 36.4203 85.5531 34.477C89.7235 30.2901 96.5823 30.2901 100.76 34.4668ZM87.5758 194.29C86.842 194.29 86.2491 193.696 86.2491 192.973C86.2491 192.239 86.8425 191.646 87.5758 191.646H110.069V176.891H87.5758C86.842 176.891 86.2491 176.298 86.2491 175.564C86.2491 174.83 86.8425 174.237 87.5758 174.237H110.069V159.483H87.5758C86.842 159.483 86.2491 158.889 86.2491 158.155C86.2491 157.421 86.8425 156.828 87.5758 156.828H110.069V149.748H76.238V208.31H110.069V194.29H87.5758V194.29ZM111.429 89.8672H111.397H74.9109H74.8736H21.9488V147.092H74.8731H74.9104H111.396H111.428H164.357V89.8672H111.429ZM48.8345 106.241H43.875V114.67C43.875 115.404 43.2758 115.997 42.5473 115.997H34.1182V120.962H42.5473C43.2758 120.962 43.875 121.556 43.875 122.289V130.718H48.8345V122.289C48.8345 121.555 49.4337 120.962 50.1622 120.962H58.5913V115.997H50.1622C49.4337 115.997 48.8345 115.403 48.8345 114.67V106.241ZM42.5478 103.596H50.1627C50.8912 103.596 51.4904 104.19 51.4904 104.924V113.353H59.9194C60.6479 113.353 61.2471 113.947 61.2471 114.67V122.289C61.2471 123.023 60.6479 123.617 59.9194 123.617H51.4904V132.046C51.4904 132.78 50.8912 133.373 50.1627 133.373H42.5478C41.814 133.373 41.2202 132.78 41.2202 132.046V123.617H32.7911C32.0626 123.617 31.4634 123.023 31.4634 122.289V114.67C31.4634 113.947 32.0626 113.353 32.7911 113.353H41.2202V104.924C41.2202 104.189 41.814 103.596 42.5478 103.596ZM148.454 124.61C147.574 123.726 146.349 123.175 144.995 123.175C143.646 123.175 142.416 123.726 141.536 124.61C140.657 125.495 140.105 126.715 140.105 128.064C140.105 129.424 140.65 130.644 141.529 131.529C142.415 132.414 143.645 132.964 144.995 132.964C146.344 132.964 147.568 132.414 148.448 131.529C149.333 130.644 149.884 129.424 149.884 128.064C149.884 126.715 149.339 125.495 148.454 124.61ZM144.996 120.519C147.068 120.519 148.957 121.372 150.322 122.732C151.697 124.114 152.54 125.991 152.54 128.064C152.54 130.147 151.693 132.035 150.327 133.406C148.966 134.766 147.078 135.608 144.996 135.608C142.918 135.608 141.029 134.766 139.664 133.406C138.298 132.035 137.451 130.147 137.451 128.064C137.451 125.98 138.293 124.102 139.664 122.732C141.024 121.372 142.912 120.519 144.996 120.519ZM128.352 124.61C127.467 123.726 126.248 123.175 124.893 123.175C123.538 123.175 122.319 123.726 121.434 124.61C120.549 125.495 120.004 126.715 120.004 128.064C120.004 129.424 120.549 130.644 121.434 131.529C122.318 132.414 123.538 132.964 124.893 132.964C126.242 132.964 127.466 132.414 128.352 131.529C129.232 130.644 129.782 129.424 129.782 128.064C129.782 126.715 129.237 125.495 128.352 124.61ZM124.893 120.519C126.971 120.519 128.854 121.372 130.22 122.732C131.59 124.114 132.438 125.991 132.438 128.064C132.438 130.147 131.59 132.035 130.23 133.406C128.86 134.766 126.976 135.608 124.893 135.608C122.815 135.608 120.926 134.766 119.566 133.406C118.196 132.035 117.348 130.147 117.348 128.064C117.348 125.98 118.196 124.102 119.556 122.732C120.922 121.372 122.81 120.519 124.893 120.519ZM148.454 105.431C147.574 104.556 146.349 104.006 144.995 104.006C143.646 104.006 142.416 104.557 141.536 105.442C140.657 106.327 140.105 107.546 140.105 108.896C140.105 110.244 140.65 111.475 141.529 112.36C142.415 113.234 143.645 113.785 144.995 113.785C146.344 113.785 147.568 113.234 148.448 112.349C149.333 111.475 149.884 110.244 149.884 108.895C149.884 107.546 149.339 106.316 148.454 105.431ZM144.996 101.351C147.068 101.351 148.957 102.193 150.322 103.563C151.697 104.934 152.54 106.823 152.54 108.895C152.54 110.978 151.693 112.867 150.327 114.227C148.966 115.598 147.078 116.44 144.996 116.44C142.918 116.44 141.029 115.598 139.664 114.227C138.298 112.856 137.451 110.978 137.451 108.895C137.451 106.812 138.293 104.924 139.664 103.563C141.024 102.193 142.912 101.351 144.996 101.351ZM128.352 105.431C127.467 104.556 126.248 104.006 124.893 104.006C123.538 104.006 122.319 104.557 121.434 105.442C120.549 106.327 120.004 107.546 120.004 108.896C120.004 110.244 120.549 111.475 121.434 112.36C122.318 113.234 123.538 113.785 124.893 113.785C126.242 113.785 127.466 113.234 128.352 112.349C129.232 111.475 129.782 110.244 129.782 108.895C129.782 107.546 129.237 106.316 128.352 105.431ZM35.1819 222.406C34.4529 222.406 33.8596 221.811 33.8596 221.078C33.8596 220.345 34.4529 219.751 35.1819 219.751H130.117C130.846 219.751 131.445 220.345 131.445 221.078C131.445 221.811 130.846 222.406 130.117 222.406H35.1819ZM82.3523 217.333C81.6185 217.333 81.0256 216.739 81.0256 216.005C81.0256 215.282 81.619 214.689 82.3523 214.689H162.108C162.836 214.689 163.429 215.282 163.429 216.005C163.429 216.74 162.836 217.333 162.108 217.333H82.3523ZM170.272 217.333C169.538 217.333 168.945 216.739 168.945 216.005C168.945 215.282 169.538 214.689 170.272 214.689H180.245C180.973 214.689 181.573 215.282 181.573 216.005C181.573 216.74 180.973 217.333 180.245 217.333H170.272ZM10.3199 217.495C9.58562 217.495 8.99226 216.891 8.99226 216.167C8.99226 215.433 9.58562 214.84 10.3199 214.84H48.1114C48.8399 214.84 49.439 215.434 49.439 216.167C49.439 216.891 48.8399 217.495 48.1114 217.495H10.3199ZM0.282715 28.261C0.282715 28.7682 0.611607 29.2859 1.03253 29.4594C1.91748 29.8914 2.93709 29.2215 2.93709 28.261V25.6062C2.93709 25.1102 2.61353 24.5914 2.19261 24.4185C1.30765 23.9767 0.282715 24.6456 0.282715 25.6062V28.261ZM0.282715 38.8708C0.282715 39.3668 0.611607 39.8952 1.03253 40.0575C1.91748 40.4997 2.93709 39.8308 2.93709 38.8708V36.2154C2.93709 35.7194 2.61353 35.19 2.19261 35.0282C1.30765 34.5855 0.282715 35.2554 0.282715 36.2154V38.8708ZM0.282715 49.4795C0.282715 49.976 0.611607 50.505 1.03253 50.6667C1.91748 51.1095 2.93709 50.4405 2.93709 49.4795V46.8252C2.93709 46.3287 2.61353 45.7997 2.19261 45.638C1.30765 45.1952 0.282715 45.8647 0.282715 46.8252V49.4795ZM0.282715 60.0898C0.282715 60.5863 0.611607 61.1045 1.03253 61.277C1.91748 61.7192 2.93709 61.0396 2.93709 60.0898V57.4349C2.93709 56.9273 2.61353 56.4095 2.19261 56.2366C1.30765 55.805 0.282715 56.4739 0.282715 57.4349V60.0898ZM0.282715 70.6879C0.282715 71.195 0.611607 71.7133 1.03253 71.8862C1.91748 72.3285 2.93709 71.6489 2.93709 70.6879V68.0437C2.93709 67.5366 2.61353 67.0183 2.19261 66.8458C1.30765 66.4031 0.282715 67.0827 0.282715 68.0437V70.6879ZM0.282715 81.2981C0.282715 81.8053 0.611607 82.3226 1.03253 82.496C1.91748 82.9387 2.93709 82.2587 2.93709 81.2981V78.6428C2.93709 78.1468 2.61353 77.6285 2.19261 77.4561C1.30765 77.0134 0.282715 77.6929 0.282715 78.6428V81.2981ZM0.282715 91.9074C0.282715 92.4034 0.611607 92.9323 1.03253 93.0941C1.91748 93.5368 2.93709 92.8679 2.93709 91.9074V89.2525C2.93709 88.7561 2.61353 88.2271 2.19261 88.0653C1.30765 87.6226 0.282715 88.292 0.282715 89.2525V91.9074ZM0.282715 102.517C0.282715 103.013 0.611607 103.542 1.03253 103.704C1.91748 104.146 2.93709 103.477 2.93709 102.517V99.8618C2.93709 99.3658 2.61353 98.8364 2.19261 98.6746C1.30765 98.2324 0.282715 98.9013 0.282715 99.8618V102.517ZM0.282715 113.126C0.282715 113.623 0.611607 114.152 1.03253 114.314C1.91748 114.756 2.93709 114.087 2.93709 113.126V110.472C2.93709 109.976 2.61353 109.446 2.19261 109.284C1.30765 108.842 0.282715 109.512 0.282715 110.472V113.126ZM0.282715 123.736C0.282715 124.232 0.611607 124.761 1.03253 124.923C1.91748 125.366 2.93709 124.697 2.93709 123.736V121.081C2.93709 120.574 2.61353 120.056 2.19261 119.883C1.30765 119.44 0.282715 120.12 0.282715 121.081V123.736ZM0.282715 134.335C0.282715 134.842 0.611607 135.36 1.03253 135.533C1.91748 135.975 2.93709 135.296 2.93709 134.335V131.691C2.93709 131.183 2.61353 130.665 2.19261 130.492C1.30765 130.05 0.282715 130.73 0.282715 131.691V134.335ZM0.282715 144.944C0.282715 145.451 0.611607 145.969 1.03253 146.142C1.91748 146.585 2.93709 145.905 2.93709 144.944V142.3C2.93709 141.793 2.61353 141.274 2.19261 141.101C1.30765 140.659 0.282715 141.339 0.282715 142.3V144.944ZM0.282715 155.554C0.282715 156.061 0.611607 156.579 1.03253 156.752C1.91748 157.194 2.93709 156.514 2.93709 155.554V152.898C2.93709 152.402 2.61353 151.884 2.19261 151.711C1.30765 151.269 0.282715 151.938 0.282715 152.898V155.554ZM0.282715 166.163C0.282715 166.66 0.611607 167.188 1.03253 167.35C1.91748 167.793 2.93709 167.124 2.93709 166.163V163.509C2.93709 163.012 2.61353 162.483 2.19261 162.321C1.30765 161.879 0.282715 162.549 0.282715 163.509V166.163ZM0.282715 176.773C0.282715 177.269 0.611607 177.798 1.03253 177.96C1.91748 178.402 2.93709 177.733 2.93709 176.773V174.118C2.93709 173.621 2.61353 173.093 2.19261 172.931C1.30765 172.489 0.282715 173.157 0.282715 174.118V176.773ZM0.282715 187.382C0.282715 187.878 0.611607 188.408 1.03253 188.569C1.91748 189.012 2.93709 188.342 2.93709 187.382V184.727C2.93709 184.231 2.61353 183.702 2.19261 183.54C1.30765 183.098 0.282715 183.767 0.282715 184.727V187.382ZM0.282715 196.535C0.282715 197.031 0.611607 197.56 1.03253 197.722C1.91748 198.164 2.93709 197.495 2.93709 196.535V195.337C2.93709 194.829 2.61353 194.312 2.19261 194.138C1.30765 193.696 0.282715 194.375 0.282715 195.337V196.535ZM2.93709 15.0071C2.93709 14.4994 2.61353 13.9816 2.19261 13.8087C1.30765 13.366 0.282715 14.0461 0.282715 15.0071V17.6513C0.282715 18.1579 0.611607 18.6762 1.03253 18.8496C1.91748 19.2918 2.93709 18.6123 2.93709 17.6513V15.0071ZM183.062 28.261C183.062 28.7682 183.386 29.2859 183.807 29.4594C184.692 29.8914 185.717 29.2215 185.717 28.261V25.6062C185.717 25.1102 185.388 24.5914 184.972 24.4185C184.082 23.9767 183.062 24.6456 183.062 25.6062V28.261ZM183.062 38.8708C183.062 39.3668 183.386 39.8952 183.807 40.0575C184.692 40.4997 185.717 39.8308 185.717 38.8708V36.2154C185.717 35.7194 185.388 35.19 184.972 35.0282C184.082 34.5855 183.062 35.2554 183.062 36.2154V38.8708ZM183.062 49.4795C183.062 49.976 183.386 50.505 183.807 50.6667C184.692 51.1095 185.717 50.4405 185.717 49.4795V46.8252C185.717 46.3287 185.388 45.7997 184.972 45.638C184.082 45.1952 183.062 45.8647 183.062 46.8252V49.4795ZM183.062 60.0898C183.062 60.5863 183.386 61.1045 183.807 61.277C184.692 61.7192 185.717 61.0396 185.717 60.0898V57.4349C185.717 56.9273 185.388 56.4095 184.972 56.2366C184.082 55.805 183.062 56.4739 183.062 57.4349V60.0898ZM183.062 70.6879C183.062 71.195 183.386 71.7133 183.807 71.8862C184.692 72.3285 185.717 71.6489 185.717 70.6879V68.0437C185.717 67.5366 185.388 67.0183 184.972 66.8458C184.082 66.4031 183.062 67.0827 183.062 68.0437V70.6879ZM183.062 81.2981C183.062 81.8053 183.386 82.3226 183.807 82.496C184.692 82.9387 185.717 82.2587 185.717 81.2981V78.6428C185.717 78.1468 185.388 77.6285 184.972 77.4561C184.082 77.0134 183.062 77.6929 183.062 78.6428V81.2981ZM183.062 91.9074C183.062 92.4034 183.386 92.9323 183.807 93.0941C184.692 93.5368 185.717 92.8679 185.717 91.9074V89.2525C185.717 88.7561 185.388 88.2271 184.972 88.0653C184.082 87.6226 183.062 88.292 183.062 89.2525V91.9074ZM183.062 102.517C183.062 103.013 183.386 103.542 183.807 103.704C184.692 104.146 185.717 103.477 185.717 102.517V99.8618C185.717 99.3658 185.388 98.8364 184.972 98.6746C184.082 98.2324 183.062 98.9013 183.062 99.8618V102.517ZM183.062 113.126C183.062 113.623 183.386 114.152 183.807 114.314C184.692 114.756 185.717 114.087 185.717 113.126V110.472C185.717 109.976 185.388 109.446 184.972 109.284C184.082 108.842 183.062 109.512 183.062 110.472V113.126ZM183.062 123.736C183.062 124.232 183.386 124.761 183.807 124.923C184.692 125.366 185.717 124.697 185.717 123.736V121.081C185.717 120.574 185.388 120.056 184.972 119.883C184.082 119.44 183.062 120.12 183.062 121.081V123.736ZM183.062 134.335C183.062 134.842 183.386 135.36 183.807 135.533C184.692 135.975 185.717 135.296 185.717 134.335V131.691C185.717 131.183 185.388 130.665 184.972 130.492C184.082 130.05 183.062 130.73 183.062 131.691V134.335ZM183.062 144.944C183.062 145.451 183.386 145.969 183.807 146.142C184.692 146.585 185.717 145.905 185.717 144.944V142.3C185.717 141.793 185.388 141.274 184.972 141.101C184.082 140.659 183.062 141.339 183.062 142.3V144.944ZM183.062 155.554C183.062 156.061 183.386 156.579 183.807 156.752C184.692 157.194 185.717 156.514 185.717 155.554V152.898C185.717 152.402 185.388 151.884 184.972 151.711C184.082 151.269 183.062 151.938 183.062 152.898V155.554ZM183.062 166.163C183.062 166.66 183.386 167.188 183.807 167.35C184.692 167.793 185.717 167.124 185.717 166.163V163.509C185.717 163.012 185.388 162.483 184.972 162.321C184.082 161.879 183.062 162.549 183.062 163.509V166.163ZM183.062 176.773C183.062 177.269 183.386 177.798 183.807 177.96C184.692 178.402 185.717 177.733 185.717 176.773V174.118C185.717 173.621 185.388 173.093 184.972 172.931C184.082 172.489 183.062 173.157 183.062 174.118V176.773ZM183.062 187.382C183.062 187.878 183.386 188.408 183.807 188.569C184.692 189.012 185.717 188.342 185.717 187.382V184.727C185.717 184.231 185.388 183.702 184.972 183.54C184.082 183.098 183.062 183.767 183.062 184.727V187.382ZM183.062 196.535C183.062 197.031 183.386 197.56 183.807 197.722C184.692 198.164 185.717 197.495 185.717 196.535V195.337C185.717 194.829 185.388 194.312 184.972 194.138C184.082 193.696 183.062 194.375 183.062 195.337V196.535ZM185.717 15.0071C185.717 14.4994 185.388 13.9816 184.972 13.8087C184.082 13.366 183.062 14.0461 183.062 15.0071V17.6513C183.062 18.1579 183.386 18.6762 183.807 18.8496C184.692 19.2918 185.717 18.6123 185.717 17.6513V15.0071ZM124.893 101.351C126.971 101.351 128.854 102.193 130.22 103.563C131.59 104.934 132.438 106.823 132.438 108.895C132.438 110.978 131.59 112.867 130.23 114.227C128.86 115.598 126.976 116.44 124.893 116.44C122.815 116.44 120.926 115.598 119.566 114.227C118.196 112.856 117.348 110.978 117.348 108.895C117.348 106.812 118.196 104.924 119.556 103.563C120.922 102.193 122.81 101.351 124.893 101.351Z"/>
</mask>
<g filter="url(#filter0_i_128_250)">
<path fill-rule="evenodd" clip-rule="evenodd" d="M169.074 17.986C132.702 17.986 96.3188 17.986 59.9354 17.986L19.7207 66.1546C69.5086 66.1546 119.292 66.1546 169.074 66.1546V17.986ZM110.069 68.81H76.238V87.2119H110.069V68.81ZM76.2385 15.3418H110.069V-0.405273H76.2385V15.3418ZM98.8821 36.3447C97.4193 34.8771 95.3902 33.9703 93.1568 33.9703C90.917 33.9703 88.8933 34.8771 87.4257 36.3447C85.9575 37.8017 85.0508 39.8308 85.0508 42.0759C85.0508 44.3209 85.9575 46.3389 87.4194 47.807C88.8822 49.2747 90.9107 50.1814 93.1568 50.1814C95.3631 50.1814 97.3655 49.2964 98.8225 47.8709L98.8821 47.8065C100.345 46.3384 101.256 44.3088 101.256 42.0754C101.256 39.8414 100.344 37.8129 98.8821 36.3447ZM100.76 34.4668C102.703 36.4097 103.906 39.1076 103.906 42.0759C103.906 45.0436 102.703 47.7314 100.76 49.6849L100.668 49.7605C98.7252 51.6602 96.0756 52.8256 93.1568 52.8256C90.188 52.8256 87.5012 51.6268 85.5579 49.6849C83.5991 47.7208 82.3954 45.033 82.3954 42.0759C82.3954 39.1076 83.6039 36.4203 85.5531 34.477C89.7235 30.2901 96.5823 30.2901 100.76 34.4668ZM87.5758 194.29C86.842 194.29 86.2491 193.696 86.2491 192.973C86.2491 192.239 86.8425 191.646 87.5758 191.646H110.069V176.891H87.5758C86.842 176.891 86.2491 176.298 86.2491 175.564C86.2491 174.83 86.8425 174.237 87.5758 174.237H110.069V159.483H87.5758C86.842 159.483 86.2491 158.889 86.2491 158.155C86.2491 157.421 86.8425 156.828 87.5758 156.828H110.069V149.748H76.238V208.31H110.069V194.29H87.5758V194.29ZM111.429 89.8672H111.397H74.9109H74.8736H21.9488V147.092H74.8731H74.9104H111.396H111.428H164.357V89.8672H111.429ZM48.8345 106.241H43.875V114.67C43.875 115.404 43.2758 115.997 42.5473 115.997H34.1182V120.962H42.5473C43.2758 120.962 43.875 121.556 43.875 122.289V130.718H48.8345V122.289C48.8345 121.555 49.4337 120.962 50.1622 120.962H58.5913V115.997H50.1622C49.4337 115.997 48.8345 115.403 48.8345 114.67V106.241ZM42.5478 103.596H50.1627C50.8912 103.596 51.4904 104.19 51.4904 104.924V113.353H59.9194C60.6479 113.353 61.2471 113.947 61.2471 114.67V122.289C61.2471 123.023 60.6479 123.617 59.9194 123.617H51.4904V132.046C51.4904 132.78 50.8912 133.373 50.1627 133.373H42.5478C41.814 133.373 41.2202 132.78 41.2202 132.046V123.617H32.7911C32.0626 123.617 31.4634 123.023 31.4634 122.289V114.67C31.4634 113.947 32.0626 113.353 32.7911 113.353H41.2202V104.924C41.2202 104.189 41.814 103.596 42.5478 103.596ZM148.454 124.61C147.574 123.726 146.349 123.175 144.995 123.175C143.646 123.175 142.416 123.726 141.536 124.61C140.657 125.495 140.105 126.715 140.105 128.064C140.105 129.424 140.65 130.644 141.529 131.529C142.415 132.414 143.645 132.964 144.995 132.964C146.344 132.964 147.568 132.414 148.448 131.529C149.333 130.644 149.884 129.424 149.884 128.064C149.884 126.715 149.339 125.495 148.454 124.61ZM144.996 120.519C147.068 120.519 148.957 121.372 150.322 122.732C151.697 124.114 152.54 125.991 152.54 128.064C152.54 130.147 151.693 132.035 150.327 133.406C148.966 134.766 147.078 135.608 144.996 135.608C142.918 135.608 141.029 134.766 139.664 133.406C138.298 132.035 137.451 130.147 137.451 128.064C137.451 125.98 138.293 124.102 139.664 122.732C141.024 121.372 142.912 120.519 144.996 120.519ZM128.352 124.61C127.467 123.726 126.248 123.175 124.893 123.175C123.538 123.175 122.319 123.726 121.434 124.61C120.549 125.495 120.004 126.715 120.004 128.064C120.004 129.424 120.549 130.644 121.434 131.529C122.318 132.414 123.538 132.964 124.893 132.964C126.242 132.964 127.466 132.414 128.352 131.529C129.232 130.644 129.782 129.424 129.782 128.064C129.782 126.715 129.237 125.495 128.352 124.61ZM124.893 120.519C126.971 120.519 128.854 121.372 130.22 122.732C131.59 124.114 132.438 125.991 132.438 128.064C132.438 130.147 131.59 132.035 130.23 133.406C128.86 134.766 126.976 135.608 124.893 135.608C122.815 135.608 120.926 134.766 119.566 133.406C118.196 132.035 117.348 130.147 117.348 128.064C117.348 125.98 118.196 124.102 119.556 122.732C120.922 121.372 122.81 120.519 124.893 120.519ZM148.454 105.431C147.574 104.556 146.349 104.006 144.995 104.006C143.646 104.006 142.416 104.557 141.536 105.442C140.657 106.327 140.105 107.546 140.105 108.896C140.105 110.244 140.65 111.475 141.529 112.36C142.415 113.234 143.645 113.785 144.995 113.785C146.344 113.785 147.568 113.234 148.448 112.349C149.333 111.475 149.884 110.244 149.884 108.895C149.884 107.546 149.339 106.316 148.454 105.431ZM144.996 101.351C147.068 101.351 148.957 102.193 150.322 103.563C151.697 104.934 152.54 106.823 152.54 108.895C152.54 110.978 151.693 112.867 150.327 114.227C148.966 115.598 147.078 116.44 144.996 116.44C142.918 116.44 141.029 115.598 139.664 114.227C138.298 112.856 137.451 110.978 137.451 108.895C137.451 106.812 138.293 104.924 139.664 103.563C141.024 102.193 142.912 101.351 144.996 101.351ZM128.352 105.431C127.467 104.556 126.248 104.006 124.893 104.006C123.538 104.006 122.319 104.557 121.434 105.442C120.549 106.327 120.004 107.546 120.004 108.896C120.004 110.244 120.549 111.475 121.434 112.36C122.318 113.234 123.538 113.785 124.893 113.785C126.242 113.785 127.466 113.234 128.352 112.349C129.232 111.475 129.782 110.244 129.782 108.895C129.782 107.546 129.237 106.316 128.352 105.431ZM35.1819 222.406C34.4529 222.406 33.8596 221.811 33.8596 221.078C33.8596 220.345 34.4529 219.751 35.1819 219.751H130.117C130.846 219.751 131.445 220.345 131.445 221.078C131.445 221.811 130.846 222.406 130.117 222.406H35.1819ZM82.3523 217.333C81.6185 217.333 81.0256 216.739 81.0256 216.005C81.0256 215.282 81.619 214.689 82.3523 214.689H162.108C162.836 214.689 163.429 215.282 163.429 216.005C163.429 216.74 162.836 217.333 162.108 217.333H82.3523ZM170.272 217.333C169.538 217.333 168.945 216.739 168.945 216.005C168.945 215.282 169.538 214.689 170.272 214.689H180.245C180.973 214.689 181.573 215.282 181.573 216.005C181.573 216.74 180.973 217.333 180.245 217.333H170.272ZM10.3199 217.495C9.58562 217.495 8.99226 216.891 8.99226 216.167C8.99226 215.433 9.58562 214.84 10.3199 214.84H48.1114C48.8399 214.84 49.439 215.434 49.439 216.167C49.439 216.891 48.8399 217.495 48.1114 217.495H10.3199ZM0.282715 28.261C0.282715 28.7682 0.611607 29.2859 1.03253 29.4594C1.91748 29.8914 2.93709 29.2215 2.93709 28.261V25.6062C2.93709 25.1102 2.61353 24.5914 2.19261 24.4185C1.30765 23.9767 0.282715 24.6456 0.282715 25.6062V28.261ZM0.282715 38.8708C0.282715 39.3668 0.611607 39.8952 1.03253 40.0575C1.91748 40.4997 2.93709 39.8308 2.93709 38.8708V36.2154C2.93709 35.7194 2.61353 35.19 2.19261 35.0282C1.30765 34.5855 0.282715 35.2554 0.282715 36.2154V38.8708ZM0.282715 49.4795C0.282715 49.976 0.611607 50.505 1.03253 50.6667C1.91748 51.1095 2.93709 50.4405 2.93709 49.4795V46.8252C2.93709 46.3287 2.61353 45.7997 2.19261 45.638C1.30765 45.1952 0.282715 45.8647 0.282715 46.8252V49.4795ZM0.282715 60.0898C0.282715 60.5863 0.611607 61.1045 1.03253 61.277C1.91748 61.7192 2.93709 61.0396 2.93709 60.0898V57.4349C2.93709 56.9273 2.61353 56.4095 2.19261 56.2366C1.30765 55.805 0.282715 56.4739 0.282715 57.4349V60.0898ZM0.282715 70.6879C0.282715 71.195 0.611607 71.7133 1.03253 71.8862C1.91748 72.3285 2.93709 71.6489 2.93709 70.6879V68.0437C2.93709 67.5366 2.61353 67.0183 2.19261 66.8458C1.30765 66.4031 0.282715 67.0827 0.282715 68.0437V70.6879ZM0.282715 81.2981C0.282715 81.8053 0.611607 82.3226 1.03253 82.496C1.91748 82.9387 2.93709 82.2587 2.93709 81.2981V78.6428C2.93709 78.1468 2.61353 77.6285 2.19261 77.4561C1.30765 77.0134 0.282715 77.6929 0.282715 78.6428V81.2981ZM0.282715 91.9074C0.282715 92.4034 0.611607 92.9323 1.03253 93.0941C1.91748 93.5368 2.93709 92.8679 2.93709 91.9074V89.2525C2.93709 88.7561 2.61353 88.2271 2.19261 88.0653C1.30765 87.6226 0.282715 88.292 0.282715 89.2525V91.9074ZM0.282715 102.517C0.282715 103.013 0.611607 103.542 1.03253 103.704C1.91748 104.146 2.93709 103.477 2.93709 102.517V99.8618C2.93709 99.3658 2.61353 98.8364 2.19261 98.6746C1.30765 98.2324 0.282715 98.9013 0.282715 99.8618V102.517ZM0.282715 113.126C0.282715 113.623 0.611607 114.152 1.03253 114.314C1.91748 114.756 2.93709 114.087 2.93709 113.126V110.472C2.93709 109.976 2.61353 109.446 2.19261 109.284C1.30765 108.842 0.282715 109.512 0.282715 110.472V113.126ZM0.282715 123.736C0.282715 124.232 0.611607 124.761 1.03253 124.923C1.91748 125.366 2.93709 124.697 2.93709 123.736V121.081C2.93709 120.574 2.61353 120.056 2.19261 119.883C1.30765 119.44 0.282715 120.12 0.282715 121.081V123.736ZM0.282715 134.335C0.282715 134.842 0.611607 135.36 1.03253 135.533C1.91748 135.975 2.93709 135.296 2.93709 134.335V131.691C2.93709 131.183 2.61353 130.665 2.19261 130.492C1.30765 130.05 0.282715 130.73 0.282715 131.691V134.335ZM0.282715 144.944C0.282715 145.451 0.611607 145.969 1.03253 146.142C1.91748 146.585 2.93709 145.905 2.93709 144.944V142.3C2.93709 141.793 2.61353 141.274 2.19261 141.101C1.30765 140.659 0.282715 141.339 0.282715 142.3V144.944ZM0.282715 155.554C0.282715 156.061 0.611607 156.579 1.03253 156.752C1.91748 157.194 2.93709 156.514 2.93709 155.554V152.898C2.93709 152.402 2.61353 151.884 2.19261 151.711C1.30765 151.269 0.282715 151.938 0.282715 152.898V155.554ZM0.282715 166.163C0.282715 166.66 0.611607 167.188 1.03253 167.35C1.91748 167.793 2.93709 167.124 2.93709 166.163V163.509C2.93709 163.012 2.61353 162.483 2.19261 162.321C1.30765 161.879 0.282715 162.549 0.282715 163.509V166.163ZM0.282715 176.773C0.282715 177.269 0.611607 177.798 1.03253 177.96C1.91748 178.402 2.93709 177.733 2.93709 176.773V174.118C2.93709 173.621 2.61353 173.093 2.19261 172.931C1.30765 172.489 0.282715 173.157 0.282715 174.118V176.773ZM0.282715 187.382C0.282715 187.878 0.611607 188.408 1.03253 188.569C1.91748 189.012 2.93709 188.342 2.93709 187.382V184.727C2.93709 184.231 2.61353 183.702 2.19261 183.54C1.30765 183.098 0.282715 183.767 0.282715 184.727V187.382ZM0.282715 196.535C0.282715 197.031 0.611607 197.56 1.03253 197.722C1.91748 198.164 2.93709 197.495 2.93709 196.535V195.337C2.93709 194.829 2.61353 194.312 2.19261 194.138C1.30765 193.696 0.282715 194.375 0.282715 195.337V196.535ZM2.93709 15.0071C2.93709 14.4994 2.61353 13.9816 2.19261 13.8087C1.30765 13.366 0.282715 14.0461 0.282715 15.0071V17.6513C0.282715 18.1579 0.611607 18.6762 1.03253 18.8496C1.91748 19.2918 2.93709 18.6123 2.93709 17.6513V15.0071ZM183.062 28.261C183.062 28.7682 183.386 29.2859 183.807 29.4594C184.692 29.8914 185.717 29.2215 185.717 28.261V25.6062C185.717 25.1102 185.388 24.5914 184.972 24.4185C184.082 23.9767 183.062 24.6456 183.062 25.6062V28.261ZM183.062 38.8708C183.062 39.3668 183.386 39.8952 183.807 40.0575C184.692 40.4997 185.717 39.8308 185.717 38.8708V36.2154C185.717 35.7194 185.388 35.19 184.972 35.0282C184.082 34.5855 183.062 35.2554 183.062 36.2154V38.8708ZM183.062 49.4795C183.062 49.976 183.386 50.505 183.807 50.6667C184.692 51.1095 185.717 50.4405 185.717 49.4795V46.8252C185.717 46.3287 185.388 45.7997 184.972 45.638C184.082 45.1952 183.062 45.8647 183.062 46.8252V49.4795ZM183.062 60.0898C183.062 60.5863 183.386 61.1045 183.807 61.277C184.692 61.7192 185.717 61.0396 185.717 60.0898V57.4349C185.717 56.9273 185.388 56.4095 184.972 56.2366C184.082 55.805 183.062 56.4739 183.062 57.4349V60.0898ZM183.062 70.6879C183.062 71.195 183.386 71.7133 183.807 71.8862C184.692 72.3285 185.717 71.6489 185.717 70.6879V68.0437C185.717 67.5366 185.388 67.0183 184.972 66.8458C184.082 66.4031 183.062 67.0827 183.062 68.0437V70.6879ZM183.062 81.2981C183.062 81.8053 183.386 82.3226 183.807 82.496C184.692 82.9387 185.717 82.2587 185.717 81.2981V78.6428C185.717 78.1468 185.388 77.6285 184.972 77.4561C184.082 77.0134 183.062 77.6929 183.062 78.6428V81.2981ZM183.062 91.9074C183.062 92.4034 183.386 92.9323 183.807 93.0941C184.692 93.5368 185.717 92.8679 185.717 91.9074V89.2525C185.717 88.7561 185.388 88.2271 184.972 88.0653C184.082 87.6226 183.062 88.292 183.062 89.2525V91.9074ZM183.062 102.517C183.062 103.013 183.386 103.542 183.807 103.704C184.692 104.146 185.717 103.477 185.717 102.517V99.8618C185.717 99.3658 185.388 98.8364 184.972 98.6746C184.082 98.2324 183.062 98.9013 183.062 99.8618V102.517ZM183.062 113.126C183.062 113.623 183.386 114.152 183.807 114.314C184.692 114.756 185.717 114.087 185.717 113.126V110.472C185.717 109.976 185.388 109.446 184.972 109.284C184.082 108.842 183.062 109.512 183.062 110.472V113.126ZM183.062 123.736C183.062 124.232 183.386 124.761 183.807 124.923C184.692 125.366 185.717 124.697 185.717 123.736V121.081C185.717 120.574 185.388 120.056 184.972 119.883C184.082 119.44 183.062 120.12 183.062 121.081V123.736ZM183.062 134.335C183.062 134.842 183.386 135.36 183.807 135.533C184.692 135.975 185.717 135.296 185.717 134.335V131.691C185.717 131.183 185.388 130.665 184.972 130.492C184.082 130.05 183.062 130.73 183.062 131.691V134.335ZM183.062 144.944C183.062 145.451 183.386 145.969 183.807 146.142C184.692 146.585 185.717 145.905 185.717 144.944V142.3C185.717 141.793 185.388 141.274 184.972 141.101C184.082 140.659 183.062 141.339 183.062 142.3V144.944ZM183.062 155.554C183.062 156.061 183.386 156.579 183.807 156.752C184.692 157.194 185.717 156.514 185.717 155.554V152.898C185.717 152.402 185.388 151.884 184.972 151.711C184.082 151.269 183.062 151.938 183.062 152.898V155.554ZM183.062 166.163C183.062 166.66 183.386 167.188 183.807 167.35C184.692 167.793 185.717 167.124 185.717 166.163V163.509C185.717 163.012 185.388 162.483 184.972 162.321C184.082 161.879 183.062 162.549 183.062 163.509V166.163ZM183.062 176.773C183.062 177.269 183.386 177.798 183.807 177.96C184.692 178.402 185.717 177.733 185.717 176.773V174.118C185.717 173.621 185.388 173.093 184.972 172.931C184.082 172.489 183.062 173.157 183.062 174.118V176.773ZM183.062 187.382C183.062 187.878 183.386 188.408 183.807 188.569C184.692 189.012 185.717 188.342 185.717 187.382V184.727C185.717 184.231 185.388 183.702 184.972 183.54C184.082 183.098 183.062 183.767 183.062 184.727V187.382ZM183.062 196.535C183.062 197.031 183.386 197.56 183.807 197.722C184.692 198.164 185.717 197.495 185.717 196.535V195.337C185.717 194.829 185.388 194.312 184.972 194.138C184.082 193.696 183.062 194.375 183.062 195.337V196.535ZM185.717 15.0071C185.717 14.4994 185.388 13.9816 184.972 13.8087C184.082 13.366 183.062 14.0461 183.062 15.0071V17.6513C183.062 18.1579 183.386 18.6762 183.807 18.8496C184.692 19.2918 185.717 18.6123 185.717 17.6513V15.0071ZM124.893 101.351C126.971 101.351 128.854 102.193 130.22 103.563C131.59 104.934 132.438 106.823 132.438 108.895C132.438 110.978 131.59 112.867 130.23 114.227C128.86 115.598 126.976 116.44 124.893 116.44C122.815 116.44 120.926 115.598 119.566 114.227C118.196 112.856 117.348 110.978 117.348 108.895C117.348 106.812 118.196 104.924 119.556 103.563C120.922 102.193 122.81 101.351 124.893 101.351Z" fill="#59B393"/>
</g>
<path fill-rule="evenodd" clip-rule="evenodd" d="M169.074 17.986C132.702 17.986 96.3188 17.986 59.9354 17.986L19.7207 66.1546C69.5086 66.1546 119.292 66.1546 169.074 66.1546V17.986ZM110.069 68.81H76.238V87.2119H110.069V68.81ZM76.2385 15.3418H110.069V-0.405273H76.2385V15.3418ZM98.8821 36.3447C97.4193 34.8771 95.3902 33.9703 93.1568 33.9703C90.917 33.9703 88.8933 34.8771 87.4257 36.3447C85.9575 37.8017 85.0508 39.8308 85.0508 42.0759C85.0508 44.3209 85.9575 46.3389 87.4194 47.807C88.8822 49.2747 90.9107 50.1814 93.1568 50.1814C95.3631 50.1814 97.3655 49.2964 98.8225 47.8709L98.8821 47.8065C100.345 46.3384 101.256 44.3088 101.256 42.0754C101.256 39.8414 100.344 37.8129 98.8821 36.3447ZM100.76 34.4668C102.703 36.4097 103.906 39.1076 103.906 42.0759C103.906 45.0436 102.703 47.7314 100.76 49.6849L100.668 49.7605C98.7252 51.6602 96.0756 52.8256 93.1568 52.8256C90.188 52.8256 87.5012 51.6268 85.5579 49.6849C83.5991 47.7208 82.3954 45.033 82.3954 42.0759C82.3954 39.1076 83.6039 36.4203 85.5531 34.477C89.7235 30.2901 96.5823 30.2901 100.76 34.4668ZM87.5758 194.29C86.842 194.29 86.2491 193.696 86.2491 192.973C86.2491 192.239 86.8425 191.646 87.5758 191.646H110.069V176.891H87.5758C86.842 176.891 86.2491 176.298 86.2491 175.564C86.2491 174.83 86.8425 174.237 87.5758 174.237H110.069V159.483H87.5758C86.842 159.483 86.2491 158.889 86.2491 158.155C86.2491 157.421 86.8425 156.828 87.5758 156.828H110.069V149.748H76.238V208.31H110.069V194.29H87.5758V194.29ZM111.429 89.8672H111.397H74.9109H74.8736H21.9488V147.092H74.8731H74.9104H111.396H111.428H164.357V89.8672H111.429ZM48.8345 106.241H43.875V114.67C43.875 115.404 43.2758 115.997 42.5473 115.997H34.1182V120.962H42.5473C43.2758 120.962 43.875 121.556 43.875 122.289V130.718H48.8345V122.289C48.8345 121.555 49.4337 120.962 50.1622 120.962H58.5913V115.997H50.1622C49.4337 115.997 48.8345 115.403 48.8345 114.67V106.241ZM42.5478 103.596H50.1627C50.8912 103.596 51.4904 104.19 51.4904 104.924V113.353H59.9194C60.6479 113.353 61.2471 113.947 61.2471 114.67V122.289C61.2471 123.023 60.6479 123.617 59.9194 123.617H51.4904V132.046C51.4904 132.78 50.8912 133.373 50.1627 133.373H42.5478C41.814 133.373 41.2202 132.78 41.2202 132.046V123.617H32.7911C32.0626 123.617 31.4634 123.023 31.4634 122.289V114.67C31.4634 113.947 32.0626 113.353 32.7911 113.353H41.2202V104.924C41.2202 104.189 41.814 103.596 42.5478 103.596ZM148.454 124.61C147.574 123.726 146.349 123.175 144.995 123.175C143.646 123.175 142.416 123.726 141.536 124.61C140.657 125.495 140.105 126.715 140.105 128.064C140.105 129.424 140.65 130.644 141.529 131.529C142.415 132.414 143.645 132.964 144.995 132.964C146.344 132.964 147.568 132.414 148.448 131.529C149.333 130.644 149.884 129.424 149.884 128.064C149.884 126.715 149.339 125.495 148.454 124.61ZM144.996 120.519C147.068 120.519 148.957 121.372 150.322 122.732C151.697 124.114 152.54 125.991 152.54 128.064C152.54 130.147 151.693 132.035 150.327 133.406C148.966 134.766 147.078 135.608 144.996 135.608C142.918 135.608 141.029 134.766 139.664 133.406C138.298 132.035 137.451 130.147 137.451 128.064C137.451 125.98 138.293 124.102 139.664 122.732C141.024 121.372 142.912 120.519 144.996 120.519ZM128.352 124.61C127.467 123.726 126.248 123.175 124.893 123.175C123.538 123.175 122.319 123.726 121.434 124.61C120.549 125.495 120.004 126.715 120.004 128.064C120.004 129.424 120.549 130.644 121.434 131.529C122.318 132.414 123.538 132.964 124.893 132.964C126.242 132.964 127.466 132.414 128.352 131.529C129.232 130.644 129.782 129.424 129.782 128.064C129.782 126.715 129.237 125.495 128.352 124.61ZM124.893 120.519C126.971 120.519 128.854 121.372 130.22 122.732C131.59 124.114 132.438 125.991 132.438 128.064C132.438 130.147 131.59 132.035 130.23 133.406C128.86 134.766 126.976 135.608 124.893 135.608C122.815 135.608 120.926 134.766 119.566 133.406C118.196 132.035 117.348 130.147 117.348 128.064C117.348 125.98 118.196 124.102 119.556 122.732C120.922 121.372 122.81 120.519 124.893 120.519ZM148.454 105.431C147.574 104.556 146.349 104.006 144.995 104.006C143.646 104.006 142.416 104.557 141.536 105.442C140.657 106.327 140.105 107.546 140.105 108.896C140.105 110.244 140.65 111.475 141.529 112.36C142.415 113.234 143.645 113.785 144.995 113.785C146.344 113.785 147.568 113.234 148.448 112.349C149.333 111.475 149.884 110.244 149.884 108.895C149.884 107.546 149.339 106.316 148.454 105.431ZM144.996 101.351C147.068 101.351 148.957 102.193 150.322 103.563C151.697 104.934 152.54 106.823 152.54 108.895C152.54 110.978 151.693 112.867 150.327 114.227C148.966 115.598 147.078 116.44 144.996 116.44C142.918 116.44 141.029 115.598 139.664 114.227C138.298 112.856 137.451 110.978 137.451 108.895C137.451 106.812 138.293 104.924 139.664 103.563C141.024 102.193 142.912 101.351 144.996 101.351ZM128.352 105.431C127.467 104.556 126.248 104.006 124.893 104.006C123.538 104.006 122.319 104.557 121.434 105.442C120.549 106.327 120.004 107.546 120.004 108.896C120.004 110.244 120.549 111.475 121.434 112.36C122.318 113.234 123.538 113.785 124.893 113.785C126.242 113.785 127.466 113.234 128.352 112.349C129.232 111.475 129.782 110.244 129.782 108.895C129.782 107.546 129.237 106.316 128.352 105.431ZM35.1819 222.406C34.4529 222.406 33.8596 221.811 33.8596 221.078C33.8596 220.345 34.4529 219.751 35.1819 219.751H130.117C130.846 219.751 131.445 220.345 131.445 221.078C131.445 221.811 130.846 222.406 130.117 222.406H35.1819ZM82.3523 217.333C81.6185 217.333 81.0256 216.739 81.0256 216.005C81.0256 215.282 81.619 214.689 82.3523 214.689H162.108C162.836 214.689 163.429 215.282 163.429 216.005C163.429 216.74 162.836 217.333 162.108 217.333H82.3523ZM170.272 217.333C169.538 217.333 168.945 216.739 168.945 216.005C168.945 215.282 169.538 214.689 170.272 214.689H180.245C180.973 214.689 181.573 215.282 181.573 216.005C181.573 216.74 180.973 217.333 180.245 217.333H170.272ZM10.3199 217.495C9.58562 217.495 8.99226 216.891 8.99226 216.167C8.99226 215.433 9.58562 214.84 10.3199 214.84H48.1114C48.8399 214.84 49.439 215.434 49.439 216.167C49.439 216.891 48.8399 217.495 48.1114 217.495H10.3199ZM0.282715 28.261C0.282715 28.7682 0.611607 29.2859 1.03253 29.4594C1.91748 29.8914 2.93709 29.2215 2.93709 28.261V25.6062C2.93709 25.1102 2.61353 24.5914 2.19261 24.4185C1.30765 23.9767 0.282715 24.6456 0.282715 25.6062V28.261ZM0.282715 38.8708C0.282715 39.3668 0.611607 39.8952 1.03253 40.0575C1.91748 40.4997 2.93709 39.8308 2.93709 38.8708V36.2154C2.93709 35.7194 2.61353 35.19 2.19261 35.0282C1.30765 34.5855 0.282715 35.2554 0.282715 36.2154V38.8708ZM0.282715 49.4795C0.282715 49.976 0.611607 50.505 1.03253 50.6667C1.91748 51.1095 2.93709 50.4405 2.93709 49.4795V46.8252C2.93709 46.3287 2.61353 45.7997 2.19261 45.638C1.30765 45.1952 0.282715 45.8647 0.282715 46.8252V49.4795ZM0.282715 60.0898C0.282715 60.5863 0.611607 61.1045 1.03253 61.277C1.91748 61.7192 2.93709 61.0396 2.93709 60.0898V57.4349C2.93709 56.9273 2.61353 56.4095 2.19261 56.2366C1.30765 55.805 0.282715 56.4739 0.282715 57.4349V60.0898ZM0.282715 70.6879C0.282715 71.195 0.611607 71.7133 1.03253 71.8862C1.91748 72.3285 2.93709 71.6489 2.93709 70.6879V68.0437C2.93709 67.5366 2.61353 67.0183 2.19261 66.8458C1.30765 66.4031 0.282715 67.0827 0.282715 68.0437V70.6879ZM0.282715 81.2981C0.282715 81.8053 0.611607 82.3226 1.03253 82.496C1.91748 82.9387 2.93709 82.2587 2.93709 81.2981V78.6428C2.93709 78.1468 2.61353 77.6285 2.19261 77.4561C1.30765 77.0134 0.282715 77.6929 0.282715 78.6428V81.2981ZM0.282715 91.9074C0.282715 92.4034 0.611607 92.9323 1.03253 93.0941C1.91748 93.5368 2.93709 92.8679 2.93709 91.9074V89.2525C2.93709 88.7561 2.61353 88.2271 2.19261 88.0653C1.30765 87.6226 0.282715 88.292 0.282715 89.2525V91.9074ZM0.282715 102.517C0.282715 103.013 0.611607 103.542 1.03253 103.704C1.91748 104.146 2.93709 103.477 2.93709 102.517V99.8618C2.93709 99.3658 2.61353 98.8364 2.19261 98.6746C1.30765 98.2324 0.282715 98.9013 0.282715 99.8618V102.517ZM0.282715 113.126C0.282715 113.623 0.611607 114.152 1.03253 114.314C1.91748 114.756 2.93709 114.087 2.93709 113.126V110.472C2.93709 109.976 2.61353 109.446 2.19261 109.284C1.30765 108.842 0.282715 109.512 0.282715 110.472V113.126ZM0.282715 123.736C0.282715 124.232 0.611607 124.761 1.03253 124.923C1.91748 125.366 2.93709 124.697 2.93709 123.736V121.081C2.93709 120.574 2.61353 120.056 2.19261 119.883C1.30765 119.44 0.282715 120.12 0.282715 121.081V123.736ZM0.282715 134.335C0.282715 134.842 0.611607 135.36 1.03253 135.533C1.91748 135.975 2.93709 135.296 2.93709 134.335V131.691C2.93709 131.183 2.61353 130.665 2.19261 130.492C1.30765 130.05 0.282715 130.73 0.282715 131.691V134.335ZM0.282715 144.944C0.282715 145.451 0.611607 145.969 1.03253 146.142C1.91748 146.585 2.93709 145.905 2.93709 144.944V142.3C2.93709 141.793 2.61353 141.274 2.19261 141.101C1.30765 140.659 0.282715 141.339 0.282715 142.3V144.944ZM0.282715 155.554C0.282715 156.061 0.611607 156.579 1.03253 156.752C1.91748 157.194 2.93709 156.514 2.93709 155.554V152.898C2.93709 152.402 2.61353 151.884 2.19261 151.711C1.30765 151.269 0.282715 151.938 0.282715 152.898V155.554ZM0.282715 166.163C0.282715 166.66 0.611607 167.188 1.03253 167.35C1.91748 167.793 2.93709 167.124 2.93709 166.163V163.509C2.93709 163.012 2.61353 162.483 2.19261 162.321C1.30765 161.879 0.282715 162.549 0.282715 163.509V166.163ZM0.282715 176.773C0.282715 177.269 0.611607 177.798 1.03253 177.96C1.91748 178.402 2.93709 177.733 2.93709 176.773V174.118C2.93709 173.621 2.61353 173.093 2.19261 172.931C1.30765 172.489 0.282715 173.157 0.282715 174.118V176.773ZM0.282715 187.382C0.282715 187.878 0.611607 188.408 1.03253 188.569C1.91748 189.012 2.93709 188.342 2.93709 187.382V184.727C2.93709 184.231 2.61353 183.702 2.19261 183.54C1.30765 183.098 0.282715 183.767 0.282715 184.727V187.382ZM0.282715 196.535C0.282715 197.031 0.611607 197.56 1.03253 197.722C1.91748 198.164 2.93709 197.495 2.93709 196.535V195.337C2.93709 194.829 2.61353 194.312 2.19261 194.138C1.30765 193.696 0.282715 194.375 0.282715 195.337V196.535ZM2.93709 15.0071C2.93709 14.4994 2.61353 13.9816 2.19261 13.8087C1.30765 13.366 0.282715 14.0461 0.282715 15.0071V17.6513C0.282715 18.1579 0.611607 18.6762 1.03253 18.8496C1.91748 19.2918 2.93709 18.6123 2.93709 17.6513V15.0071ZM183.062 28.261C183.062 28.7682 183.386 29.2859 183.807 29.4594C184.692 29.8914 185.717 29.2215 185.717 28.261V25.6062C185.717 25.1102 185.388 24.5914 184.972 24.4185C184.082 23.9767 183.062 24.6456 183.062 25.6062V28.261ZM183.062 38.8708C183.062 39.3668 183.386 39.8952 183.807 40.0575C184.692 40.4997 185.717 39.8308 185.717 38.8708V36.2154C185.717 35.7194 185.388 35.19 184.972 35.0282C184.082 34.5855 183.062 35.2554 183.062 36.2154V38.8708ZM183.062 49.4795C183.062 49.976 183.386 50.505 183.807 50.6667C184.692 51.1095 185.717 50.4405 185.717 49.4795V46.8252C185.717 46.3287 185.388 45.7997 184.972 45.638C184.082 45.1952 183.062 45.8647 183.062 46.8252V49.4795ZM183.062 60.0898C183.062 60.5863 183.386 61.1045 183.807 61.277C184.692 61.7192 185.717 61.0396 185.717 60.0898V57.4349C185.717 56.9273 185.388 56.4095 184.972 56.2366C184.082 55.805 183.062 56.4739 183.062 57.4349V60.0898ZM183.062 70.6879C183.062 71.195 183.386 71.7133 183.807 71.8862C184.692 72.3285 185.717 71.6489 185.717 70.6879V68.0437C185.717 67.5366 185.388 67.0183 184.972 66.8458C184.082 66.4031 183.062 67.0827 183.062 68.0437V70.6879ZM183.062 81.2981C183.062 81.8053 183.386 82.3226 183.807 82.496C184.692 82.9387 185.717 82.2587 185.717 81.2981V78.6428C185.717 78.1468 185.388 77.6285 184.972 77.4561C184.082 77.0134 183.062 77.6929 183.062 78.6428V81.2981ZM183.062 91.9074C183.062 92.4034 183.386 92.9323 183.807 93.0941C184.692 93.5368 185.717 92.8679 185.717 91.9074V89.2525C185.717 88.7561 185.388 88.2271 184.972 88.0653C184.082 87.6226 183.062 88.292 183.062 89.2525V91.9074ZM183.062 102.517C183.062 103.013 183.386 103.542 183.807 103.704C184.692 104.146 185.717 103.477 185.717 102.517V99.8618C185.717 99.3658 185.388 98.8364 184.972 98.6746C184.082 98.2324 183.062 98.9013 183.062 99.8618V102.517ZM183.062 113.126C183.062 113.623 183.386 114.152 183.807 114.314C184.692 114.756 185.717 114.087 185.717 113.126V110.472C185.717 109.976 185.388 109.446 184.972 109.284C184.082 108.842 183.062 109.512 183.062 110.472V113.126ZM183.062 123.736C183.062 124.232 183.386 124.761 183.807 124.923C184.692 125.366 185.717 124.697 185.717 123.736V121.081C185.717 120.574 185.388 120.056 184.972 119.883C184.082 119.44 183.062 120.12 183.062 121.081V123.736ZM183.062 134.335C183.062 134.842 183.386 135.36 183.807 135.533C184.692 135.975 185.717 135.296 185.717 134.335V131.691C185.717 131.183 185.388 130.665 184.972 130.492C184.082 130.05 183.062 130.73 183.062 131.691V134.335ZM183.062 144.944C183.062 145.451 183.386 145.969 183.807 146.142C184.692 146.585 185.717 145.905 185.717 144.944V142.3C185.717 141.793 185.388 141.274 184.972 141.101C184.082 140.659 183.062 141.339 183.062 142.3V144.944ZM183.062 155.554C183.062 156.061 183.386 156.579 183.807 156.752C184.692 157.194 185.717 156.514 185.717 155.554V152.898C185.717 152.402 185.388 151.884 184.972 151.711C184.082 151.269 183.062 151.938 183.062 152.898V155.554ZM183.062 166.163C183.062 166.66 183.386 167.188 183.807 167.35C184.692 167.793 185.717 167.124 185.717 166.163V163.509C185.717 163.012 185.388 162.483 184.972 162.321C184.082 161.879 183.062 162.549 183.062 163.509V166.163ZM183.062 176.773C183.062 177.269 183.386 177.798 183.807 177.96C184.692 178.402 185.717 177.733 185.717 176.773V174.118C185.717 173.621 185.388 173.093 184.972 172.931C184.082 172.489 183.062 173.157 183.062 174.118V176.773ZM183.062 187.382C183.062 187.878 183.386 188.408 183.807 188.569C184.692 189.012 185.717 188.342 185.717 187.382V184.727C185.717 184.231 185.388 183.702 184.972 183.54C184.082 183.098 183.062 183.767 183.062 184.727V187.382ZM183.062 196.535C183.062 197.031 183.386 197.56 183.807 197.722C184.692 198.164 185.717 197.495 185.717 196.535V195.337C185.717 194.829 185.388 194.312 184.972 194.138C184.082 193.696 183.062 194.375 183.062 195.337V196.535ZM185.717 15.0071C185.717 14.4994 185.388 13.9816 184.972 13.8087C184.082 13.366 183.062 14.0461 183.062 15.0071V17.6513C183.062 18.1579 183.386 18.6762 183.807 18.8496C184.692 19.2918 185.717 18.6123 185.717 17.6513V15.0071ZM124.893 101.351C126.971 101.351 128.854 102.193 130.22 103.563C131.59 104.934 132.438 106.823 132.438 108.895C132.438 110.978 131.59 112.867 130.23 114.227C128.86 115.598 126.976 116.44 124.893 116.44C122.815 116.44 120.926 115.598 119.566 114.227C118.196 112.856 117.348 110.978 117.348 108.895C117.348 106.812 118.196 104.924 119.556 103.563C120.922 102.193 122.81 101.351 124.893 101.351Z" stroke="black" stroke-width="2" mask="url(#path-1-inside-1_128_250)"/>
</g>
<defs>
<filter id="filter0_i_128_250" x="0.282715" y="-0.405273" width="185.434" height="226.811" filterUnits="userSpaceOnUse" color-interpolation-filters="sRGB">
<feFlood flood-opacity="0" result="BackgroundImageFix"/>
<feBlend mode="normal" in="SourceGraphic" in2="BackgroundImageFix" result="shape"/>
<feColorMatrix in="SourceAlpha" type="matrix" values="0 0 0 0 0 0 0 0 0 0 0 0 0 0 0 0 0 0 127 0" result="hardAlpha"/>
<feOffset dy="4"/>
<feGaussianBlur stdDeviation="2"/>
<feComposite in2="hardAlpha" operator="arithmetic" k2="-1" k3="1"/>
<feColorMatrix type="matrix" values="0 0 0 0 0 0 0 0 0 0 0 0 0 0 0 0 0 0 0.25 0"/>
<feBlend mode="normal" in2="shape" result="effect1_innerShadow_128_250"/>
</filter>
<clipPath id="clip0_128_250">
<rect width="186" height="222" fill="white"/>
</clipPath>
</defs>
</svg>
