<svg width="186" height="185" viewBox="0 0 186 185" fill="none" xmlns="http://www.w3.org/2000/svg">
<path d="M137.3 182.127H47.1881C43.9982 182.127 41.4116 179.554 41.4116 176.381V103.224C41.4116 96.8778 46.5836 91.7336 52.9643 91.7336H131.523C137.903 91.7336 143.075 96.8778 143.075 103.224V176.381C143.076 179.554 140.49 182.127 137.3 182.127Z" fill="#AFF078"/>
<path d="M94.4999 120.424L118.329 91.7332H66.8445L90.0232 120.395C91.1693 121.813 93.3352 121.827 94.4999 120.424Z" fill="#5AC779"/>
<path d="M51.424 176.382V103.224C51.424 96.8781 56.596 91.7339 62.9766 91.7339H52.9643C46.5836 91.7339 41.4116 96.8781 41.4116 103.224V176.382C41.4116 179.554 43.9978 182.127 47.1881 182.127H57.2005C54.0098 182.127 51.424 179.554 51.424 176.382Z" fill="#5AC779"/>
<path d="M59.8962 14.3635V53.0276C59.8962 70.768 74.1626 85.4729 91.9985 85.6045C109.976 85.7371 124.592 71.2818 124.592 53.4316V14.3631C124.592 8.01677 119.42 2.87256 113.039 2.87256H71.4489C65.0686 2.87256 59.8962 8.01713 59.8962 14.3635Z" fill="#FCF8E4"/>
<path d="M101.241 82.5404C83.4048 82.4089 69.1384 67.704 69.1384 49.9635V11.2991C69.1384 7.96907 70.5639 4.97114 72.8399 2.87256H71.4489C65.0683 2.87256 59.8962 8.01677 59.8962 14.3631V53.0276C59.8962 70.768 74.1626 85.4729 91.9986 85.6045C97.4009 85.6442 102.496 84.359 106.985 82.0681C105.119 82.3857 103.201 82.5545 101.241 82.5404Z" fill="#FFD652"/>
<path d="M132.679 58.0276H124.592V39.6426H132.679C135.868 39.6426 138.455 42.2149 138.455 45.388V52.2825C138.455 55.4553 135.868 58.0276 132.679 58.0276Z" fill="#FF7452"/>
<path d="M59.8962 58.0277H51.8092C48.6193 58.0277 46.0327 55.4554 46.0327 52.2823V45.3878C46.0327 42.215 48.6189 39.6423 51.8092 39.6423H59.8962V58.0277Z" fill="#FF7452"/>
<path d="M124.592 37.1356V14.3634C124.592 8.01701 119.42 2.8728 113.039 2.8728H71.4489C65.0683 2.8728 59.8962 8.01701 59.8962 14.3634V42.7069L109.188 19.7258L124.592 37.1356Z" fill="#999999"/>
<path d="M69.1384 14.3634C69.1384 8.01701 74.3105 2.8728 80.6911 2.8728H71.4489C65.0683 2.8728 59.8962 8.01701 59.8962 14.3634V42.7069L69.1384 38.3981V14.3634Z" fill="#808080"/>
<path d="M92.2439 91.7336H73.7595L92.2439 114.715L110.728 91.7336H92.2439Z" fill="white"/>
<path d="M153.858 76.4126C148.01 76.4126 142.641 78.4425 138.415 81.8278L123.051 79.4766L130.511 93.0784C129.673 95.543 129.213 98.1804 129.213 100.926C129.213 114.464 140.247 125.439 153.859 125.439C167.471 125.439 178.505 114.464 178.505 100.926C178.505 87.3872 167.47 76.4126 153.858 76.4126Z" fill="#FFD652"/>
<path d="M154.629 117.013C141.703 117.013 131.109 107.115 130.073 94.5251C129.517 96.5663 129.212 98.71 129.212 100.926C129.212 114.464 140.247 125.44 153.858 125.44C167.47 125.44 178.504 114.465 178.504 100.926C178.504 100.249 178.469 99.5808 178.415 98.9178C175.579 109.342 166.006 117.013 154.629 117.013Z" fill="#FB9D46"/>
<path d="M48.2752 105.522H7.49634V148.421H59.8689V87.2966C59.3832 88.7094 52.4293 99.2735 48.2752 105.522Z" fill="#458FDE"/>
<path d="M15.2251 105.522H7.49634V148.421H15.2251V105.522Z" fill="#4F5AA8"/>
<path d="M47.7659 59.9011V66.4541C47.7659 74.3744 54.2439 80.8176 62.207 80.8176H70.4204C76.3644 85.5578 83.8516 88.417 91.9775 88.4773C92.0675 88.4777 92.1565 88.4781 92.2466 88.4781C101.61 88.4781 110.416 84.8713 117.067 78.3053C121.967 73.4675 125.252 67.4532 126.674 60.9005H132.679C137.457 60.9005 141.344 57.0347 141.344 52.2825V45.3881C141.344 42.0881 139.468 39.217 136.722 37.7695V14.3635C136.722 6.44318 130.244 0 122.281 0H62.2067C54.2436 0 47.7656 6.44318 47.7656 14.3635V37.7695C45.0199 39.217 43.1443 42.0881 43.1443 45.3881V52.2825C43.1447 55.5825 45.0203 58.4536 47.7659 59.9011ZM57.0735 55.1551H51.8089C50.2163 55.1551 48.9208 53.8666 48.9208 52.2825V45.3881C48.9208 43.804 50.2163 42.5155 51.8089 42.5155H57.0078V53.0276C57.0081 53.7416 57.0321 54.4508 57.0735 55.1551ZM53.5424 66.4541V60.9002H57.8898C59.0854 66.1586 61.4521 70.9805 64.6959 75.0721H62.207C57.4292 75.0721 53.5424 71.2063 53.5424 66.4541ZM112.997 74.2277C107.383 79.7701 99.9166 82.793 92.0196 82.7315C88.4482 82.7052 85.0261 82.0284 81.8597 80.8172H92.2434C93.8385 80.8172 95.1315 79.5309 95.1315 77.9447C95.1315 76.3585 93.8382 75.0721 92.2434 75.0721H72.5482C66.5606 69.6244 62.7839 61.75 62.7839 53.0272V44.5324L108.451 23.242L121.703 38.2201V53.4319C121.704 61.2991 118.611 68.685 112.997 74.2277ZM135.567 52.2825C135.567 53.8666 134.271 55.1551 132.679 55.1551H127.438C127.465 54.5827 127.48 54.0082 127.48 53.4315V42.5155H132.679C134.272 42.5155 135.567 43.804 135.567 45.3881L135.567 52.2825ZM130.946 14.3635V36.7701H127.48V14.3635C127.48 11.3052 126.511 8.4695 124.867 6.13713C128.385 7.23376 130.946 10.5067 130.946 14.3635ZM113.039 5.74546C117.817 5.74546 121.704 9.61129 121.704 14.3635V29.5229L111.356 17.8279C110.508 16.8693 109.125 16.5831 107.962 17.1247L62.7846 38.1879V14.3635C62.7846 9.61129 66.6714 5.74546 71.4492 5.74546H113.039ZM59.6212 6.13713C57.977 8.46914 57.0081 11.3048 57.0081 14.3635V36.7701H53.5424V14.3635C53.5424 10.5067 56.1025 7.23376 59.6212 6.13713Z" fill="black"/>
<path d="M112.269 44.4304H106.107C104.512 44.4304 103.219 45.7167 103.219 47.303C103.219 48.8892 104.512 50.1755 106.107 50.1755H112.269C113.864 50.1755 115.157 48.8892 115.157 47.303C115.157 45.7167 113.864 44.4304 112.269 44.4304Z" fill="black"/>
<path d="M81.2685 47.303C81.2685 45.7164 79.9753 44.4304 78.3805 44.4304H72.2189C70.6237 44.4304 69.3308 45.7167 69.3308 47.303C69.3308 48.8892 70.6241 50.1755 72.2189 50.1755H78.3805C79.9756 50.1755 81.2685 48.8896 81.2685 47.303Z" fill="black"/>
<path d="M103.219 60.3261C101.943 59.3748 100.133 59.6317 99.1758 60.9006C96.6492 64.2512 92.6873 64.3477 92.2441 64.3477C88.0337 64.3477 85.5786 61.2533 85.3124 60.9006C84.3555 59.6313 82.5453 59.3744 81.269 60.3261C79.9932 61.2779 79.7346 63.0791 80.6914 64.3477C81.4147 65.307 85.3719 70.0932 92.2441 70.0932C93.4498 70.0932 99.6732 69.8164 103.797 64.3477C104.754 63.0787 104.495 61.2779 103.219 60.3261Z" fill="black"/>
<path d="M90.5108 163.742C90.5108 162.155 89.2175 160.869 87.6227 160.869H72.0264V148.229H87.6227C89.2179 148.229 90.5108 146.943 90.5108 145.357V126.972C90.5108 125.385 89.2175 124.099 87.6227 124.099H69.1383C67.5432 124.099 66.2502 125.386 66.2502 126.972C66.2502 128.559 67.5435 129.844 69.1383 129.844H84.7346V142.484H69.1383C67.5432 142.484 66.2502 143.77 66.2502 145.357V163.742C66.2502 165.328 67.5435 166.614 69.1383 166.614H87.6227C89.2179 166.614 90.5108 165.328 90.5108 163.742Z" fill="black"/>
<path d="M98.4052 124.099C96.81 124.099 95.5171 125.385 95.5171 126.971V151.485C95.5171 153.071 96.8104 154.357 98.4052 154.357H110.921V163.741C110.921 165.328 112.214 166.614 113.809 166.614C115.403 166.614 116.697 165.327 116.697 163.741V154.357H121.51C123.106 154.357 124.399 153.071 124.399 151.485C124.399 149.898 123.105 148.612 121.51 148.612H116.697V134.632C116.697 133.045 115.403 131.759 113.809 131.759C112.214 131.759 110.921 133.045 110.921 134.632V148.612H101.293V126.972C101.294 125.385 100 124.099 98.4052 124.099Z" fill="black"/>
<path d="M153.859 73.54C148.037 73.54 142.327 75.4005 137.637 78.8024L123.49 76.6381C122.405 76.4708 121.318 76.9325 120.687 77.8268C120.056 78.7207 119.989 79.8936 120.516 80.8526L124.907 88.8607H62.7567V87.2965C62.7567 85.8916 61.7351 84.6931 60.3416 84.4629C58.9727 84.2368 57.6348 85.0132 57.1574 86.3057C57.0815 86.473 56.7832 87.0529 55.6495 88.8885C55.5263 88.8722 55.4017 88.8617 55.2745 88.8617H52.9641C45.195 88.8617 38.8423 94.9963 38.5379 102.65H7.49599C5.90082 102.65 4.60791 103.937 4.60791 105.523V148.421C4.60791 150.008 5.90119 151.294 7.49599 151.294H38.5233V176.382C38.5233 181.134 42.4101 185 47.1879 185H62.9768C64.572 185 65.8649 183.714 65.8649 182.127C65.8649 180.541 64.5716 179.255 62.9768 179.255H47.1879C45.5953 179.255 44.2999 177.966 44.2999 176.382V151.294H59.8686C61.4637 151.294 62.7567 150.007 62.7567 148.421V128.504C62.7567 126.917 61.4634 125.631 59.8686 125.631C58.2738 125.631 56.9805 126.918 56.9805 128.504V145.548H10.3844V108.395H48.2756C49.2452 108.395 50.1501 107.911 50.6849 107.107C53.3365 103.118 55.3897 99.992 56.9809 97.5375V116.247C56.9809 117.834 58.2741 119.12 59.8689 119.12C61.4637 119.12 62.757 117.833 62.757 116.247V94.6061H72.3716L89.9888 116.509C90.5367 117.19 91.3668 117.587 92.2441 117.587C93.1214 117.587 93.9511 117.19 94.4993 116.509L112.117 94.6061H127.072C126.578 96.6747 126.325 98.791 126.325 100.926C126.325 111.08 131.914 119.954 140.188 124.683V176.381C140.188 177.965 138.893 179.254 137.3 179.254H78.3802C76.7851 179.254 75.4922 180.54 75.4922 182.126C75.4922 183.713 76.7854 184.999 78.3802 184.999H137.299C142.077 184.999 145.964 181.133 145.964 176.381V127.159C148.466 127.906 151.115 128.312 153.858 128.312C169.04 128.312 181.392 116.027 181.392 100.926C181.392 85.8255 169.041 73.54 153.859 73.54ZM46.7215 102.65H44.3213C44.5978 98.4943 47.8473 95.1358 51.9691 94.6646C50.606 96.765 48.8903 99.38 46.7215 102.65ZM92.2441 110.116L79.7687 94.6065H104.719L92.2441 110.116ZM153.859 122.567C141.861 122.567 132.101 112.859 132.101 100.926C132.101 98.5673 132.486 96.2368 133.247 93.998C133.505 93.2388 133.432 92.4067 133.047 91.7028L128.383 83.1987L137.977 84.6667C138.778 84.7896 139.596 84.5713 140.228 84.0651C144.131 80.9382 148.845 79.2855 153.859 79.2855C165.856 79.2855 175.616 88.9936 175.616 100.926C175.616 112.859 165.856 122.567 153.859 122.567Z" fill="black"/>
<path d="M153.859 96.5212C152.263 96.5212 150.97 97.8076 150.97 99.3938V113.182C150.97 114.769 152.264 116.055 153.859 116.055C155.454 116.055 156.747 114.769 156.747 113.182V99.3938C156.747 97.8076 155.454 96.5212 153.859 96.5212Z" fill="black"/>
<path d="M153.859 87.3286C152.263 87.3286 150.97 88.6149 150.97 90.2012V91.7332C150.97 93.3198 152.264 94.6057 153.859 94.6057C155.454 94.6057 156.747 93.3194 156.747 91.7332V90.2012C156.747 88.6149 155.454 87.3286 153.859 87.3286Z" fill="black"/>
<path d="M35.0579 130.978C39.4979 129.725 42.7598 125.656 42.7598 120.843C42.7598 115.035 38.0092 110.31 32.1698 110.31C26.3304 110.31 21.5798 115.035 21.5798 120.843C21.5798 122.43 22.8731 123.716 24.4679 123.716C26.0631 123.716 27.356 122.429 27.356 120.843C27.356 118.203 29.5153 116.055 32.1698 116.055C34.8243 116.055 36.9836 118.203 36.9836 120.843C36.9836 123.483 34.8243 125.631 32.1698 125.631C30.5746 125.631 29.2817 126.917 29.2817 128.504V131.568C29.2817 133.154 30.575 134.44 32.1698 134.44C33.765 134.44 35.0579 133.154 35.0579 131.568V130.978Z" fill="black"/>
<path d="M32.1696 136.356C30.5744 136.356 29.2815 137.642 29.2815 139.228V140.76C29.2815 142.347 30.5748 143.633 32.1696 143.633C33.7647 143.633 35.0576 142.347 35.0576 140.76V139.228C35.058 137.642 33.7647 136.356 32.1696 136.356Z" fill="black"/>
</svg>
