<svg width="197" height="164" viewBox="0 0 197 164" fill="none" xmlns="http://www.w3.org/2000/svg">
<g clip-path="url(#clip0_124_191)">
<path d="M33.6647 129.353V130.353H34.6647H96.9208V163.018H34.6647H3.89999H1V1.18433H19.3792H32.0765H33.6647V129.353ZM93.7444 134.53V133.53H92.7444H34.6647H33.6647V134.53V139.229V140.229H34.6647H92.7444H93.7444V139.229V134.53ZM34.6647 143.406H33.6647V144.406V148.966V149.966H34.6647H92.7444H93.7444V148.966V144.406V143.406H92.7444H34.6647ZM30.4887 5.36073V4.36073H29.4887H19.3796H5.17641H4.17641V5.36073V155.39V157.819L5.88645 156.094L30.1983 131.579L30.4883 131.287V130.875V124.353V123.353H29.4883H20.3792V120.177H29.4883H30.4883V119.177V114.437V113.437H29.4883H25.402V110.261H29.4883H30.4883V109.261V104.521V103.521H29.4883H20.3792V100.344H29.4883H30.4883V99.3445V94.605V93.605H29.4883H25.402V90.4286H29.4883H30.4883V89.4286V84.6892V83.6892H29.4883H20.3792V80.5128H29.4883H30.4883V79.5128V75.4066V74.4066H29.4883H25.402V71.2302H29.4883H30.4883V70.2302V66.124V65.124H29.4883H20.3792V61.9476H29.4883H30.4883V60.9476V55.6517V54.6517H29.4883H25.402V51.4753H29.4883H30.4883V50.4753V45.179V44.179H29.4883H20.534V44.0245H20.3796V40.8481H29.4887H30.4887V39.8481V35.1087V34.1087H29.4887H25.4025V30.9323H29.4887H30.4887V29.9323V5.36073ZM8.33444 158.137L6.64436 159.841H9.04448H29.4887H30.4887V158.841V138.227V135.798L28.7787 137.522L8.33444 158.137ZM33.6647 158.841V159.841H34.6647H92.7444H93.7444V158.841V154.142V153.142H92.7444H34.6647H33.6647V154.142V158.841Z" fill="url(#paint0_linear_124_191)" stroke="black" stroke-width="2"/>
<path d="M23.6911 16.8761C23.6911 20.3812 20.8376 23.2343 17.3329 23.2343C13.8278 23.2343 10.9746 20.3808 10.9746 16.8761C10.9746 13.3709 13.8277 10.5178 17.3329 10.5178C20.838 10.5178 23.6911 13.3709 23.6911 16.8761ZM20.5147 16.8761C20.5147 15.1207 19.0882 13.6942 17.3329 13.6942C15.5775 13.6942 14.151 15.1207 14.151 16.8761C14.151 18.6309 15.5774 20.0579 17.3329 20.0579C19.0884 20.0579 20.5147 18.6309 20.5147 16.8761Z" stroke="black" stroke-width="2"/>
<path d="M74.7214 100.299L74.0143 101.006L74.7214 101.713L90.2875 117.279L90.9946 117.986L91.7017 117.279L177.278 31.7027L177.985 30.9956L177.278 30.2885L161.712 14.7223L161.005 14.0152L160.298 14.7223L156.228 18.7923L155.521 19.4994L156.228 20.2065L163.75 27.7288L160.951 30.5289L153.428 23.0063L152.721 22.2992L152.014 23.0063L148.155 26.8652L147.448 27.5723L148.155 28.2794L151.589 31.7133L148.789 34.513L145.356 31.0792L144.649 30.3721L143.941 31.0792L140.082 34.9386L139.375 35.6457L140.082 36.3528L147.604 43.875L144.805 46.6747L137.282 39.152L136.575 38.4449L135.868 39.152L132.009 43.0109L131.302 43.7181L132.009 44.4252L135.443 47.8586L132.644 50.6582L129.21 47.2244L128.503 46.5173L127.796 47.2244L123.937 51.0833L123.23 51.7904L123.937 52.4975L131.459 60.0202L128.66 62.8199L121.137 55.2973L120.43 54.5902L119.723 55.2973L116.38 58.6397L115.673 59.3468L116.38 60.0539L119.814 63.4877L117.014 66.2876L113.581 62.8541L112.874 62.147L112.166 62.8541L108.824 66.1965L108.117 66.9036L108.824 67.6107L116.346 75.133L113.547 77.9327L106.024 70.41L105.317 69.7029L104.61 70.41L100.857 74.1626L100.15 74.8698L100.858 75.5769L104.34 79.0589L101.541 81.8582L98.0582 78.3761L97.3511 77.6691L96.6441 78.3761L92.9714 82.0482L92.2642 82.7553L92.9714 83.4625L100.663 91.1546L97.8641 93.9543L90.1721 86.2623L89.465 85.5551L88.7579 86.2623L85.1846 89.8356L84.4774 90.5427L85.1846 91.2498L88.7109 94.7761L85.9114 97.5762L82.3848 94.0496L81.6777 93.3424L80.9706 94.0496L74.7214 100.299ZM68.4142 101.006L161.006 8.41422L183.586 30.9941L90.9941 123.586L68.4142 101.006Z" fill="#55A74A" stroke="black" stroke-width="2"/>
<path d="M75.0537 23.1352H74.0537V24.1352V46.4106V48.8248L75.7608 47.1177L98.0361 24.8423L99.7432 23.1352H97.329H75.0537ZM70.4524 19.5339H108.437L70.4524 57.5192V19.5339Z" fill="#7DFEA8" stroke="black" stroke-width="2"/>
<path d="M58.1828 76.0093H57.1828V77.0093V86.9329V89.3471L58.8899 87.64L139.184 7.34571L140.891 5.63861H138.477H63.8789H58.1828H57.1828V6.63861V11.0902V12.0902H58.1828H61.3315V15.6915H58.1828H57.1828V16.6915V21.1431V22.1431H58.1828H64.647V25.7444H58.1828H57.1828V26.7444V31.196V32.196H58.1828H61.3315V35.7973H58.1828H57.1828V36.7973V41.2489V42.2489H58.1828H64.647V45.8502H58.1828H57.1828V46.8502V51.3022V52.3022H58.1828H61.3315V55.9035H58.1828H57.1828V56.9035V61.3551V62.3551H58.1828H64.647V65.9564H58.1828H57.1828V66.9564V71.408V72.408H58.1828H61.3315V76.0093H58.1828ZM55.3822 2.03687H63.8789H149.586L53.5815 98.0411V2.03687H55.3822Z" fill="#7DFEA8" stroke="black" stroke-width="2"/>
<g clip-path="url(#clip1_124_191)">
<path d="M160.581 135.665C160.204 134.511 160.013 133.304 160.013 132.077C160.013 125.714 165.19 120.537 171.553 120.537C177.917 120.537 183.094 125.714 183.094 132.077C183.094 138.441 177.917 143.618 171.553 143.618C167.219 143.618 163.288 141.224 161.295 137.371L159.255 138.426C161.644 143.045 166.357 145.915 171.553 145.915C179.183 145.915 185.391 139.707 185.391 132.077C185.391 124.447 179.183 118.24 171.553 118.24C163.924 118.24 157.716 124.447 157.716 132.077C157.716 133.547 157.945 134.994 158.398 136.378L160.581 135.665Z" fill="#29417E"/>
<path d="M171.553 142.695C177.408 142.695 182.171 137.932 182.171 132.077C182.171 126.223 177.408 121.459 171.553 121.459C165.699 121.459 160.936 126.223 160.936 132.077C160.936 137.932 165.699 142.695 171.553 142.695ZM171.553 123.757C175.952 123.757 179.561 127.187 179.853 131.513H176.707V133.809H179.691C178.892 137.569 175.547 140.398 171.553 140.398C167.559 140.398 164.214 137.569 163.415 133.809H174.712V131.513H163.254C163.546 127.187 167.155 123.757 171.553 123.757Z" fill="#29417E"/>
<path d="M112.657 154.895H116.226V157.097H118.523V154.895V153.299H142.33V157.031H146.823H149.12H175.39C187.556 157.031 197.454 147.134 197.454 134.967C197.454 122.801 187.556 112.903 175.39 112.903H161.889L159.83 114.972L159.667 114.812C158.163 113.332 155.726 113.345 154.237 114.839L149.687 119.404C148.957 120.137 148.558 121.109 148.563 122.144C148.568 123.178 148.977 124.147 149.714 124.872L149.848 125.004L146.823 128.044V144.47L142.33 147.236V151.003H118.523V150.567H139.605V148.27H118.523V146.675H112.657C110.39 146.675 108.546 148.518 108.546 150.785C108.546 153.051 110.39 154.895 112.657 154.895ZM151.468 123.374L151.325 123.234C151.027 122.941 150.862 122.55 150.859 122.132C150.857 121.714 151.018 121.321 151.313 121.026L155.864 116.461C156.167 116.157 156.566 116.004 156.966 116.004C157.36 116.004 157.755 116.153 158.057 116.45L158.21 116.6L156.288 118.532L151.468 123.374ZM149.12 128.992L158.09 119.978L161.468 116.583L161.468 116.582L162.843 115.2H171.553C177.83 115.2 183.534 118.659 186.441 124.228L188.477 123.165C187.136 120.596 185.271 118.422 183.051 116.746C190.157 119.745 195.157 126.783 195.157 134.967C195.157 145.867 186.289 154.734 175.39 154.734H154.369V151.062H172.901C182.678 151.062 190.633 143.108 190.633 133.33V131.982C190.633 129.585 190.194 127.247 189.327 125.033L187.189 125.87C187.95 127.816 188.336 129.872 188.336 131.982V133.33C188.336 141.841 181.412 148.765 172.901 148.765H152.072V154.734H149.12V143.056L149.12 128.992ZM144.627 148.519L146.823 147.168V154.735H144.627V148.519ZM112.657 148.971H116.226V149.636H113.848V151.933H116.226V151.966V152.598H112.657C111.657 152.598 110.843 151.784 110.843 150.785C110.843 149.785 111.657 148.971 112.657 148.971Z" fill="#29417E"/>
<path d="M158.874 145.244H152.13V147.541H158.874V145.244Z" fill="#BFFB1B"/>
</g>
</g>
<defs>
<linearGradient id="paint0_linear_124_191" x1="48.9604" y1="0.184326" x2="48.9604" y2="164.018" gradientUnits="userSpaceOnUse">
<stop offset="0.5" stop-color="#55A74A"/>
</linearGradient>
<clipPath id="clip0_124_191">
<rect width="197" height="164" fill="white"/>
</clipPath>
<clipPath id="clip1_124_191">
<rect width="88" height="44" fill="white" transform="translate(109 113)"/>
</clipPath>
</defs>
</svg>
