<svg width="76" height="85" viewBox="0 0 76 85" fill="none" xmlns="http://www.w3.org/2000/svg">
<path fill-rule="evenodd" clip-rule="evenodd" d="M1.17395 7.2395H15.9648V10.5794H44.1151V7.2395H59.3831V50.6578C58.906 50.6578 57.9517 50.6578 57.4746 50.6578C55.5661 50.6578 54.1347 50.6578 52.7034 51.1349V15.3506H15.4877L8.33081 21.5532V66.88H40.7753V67.3571C40.7753 69.7428 41.2524 72.1284 42.2066 74.0369H1.17395V7.2395V7.2395Z" stroke="#EF7F1A" stroke-width="1.80791" stroke-miterlimit="22.9256" stroke-linecap="round" stroke-linejoin="round"/>
<path fill-rule="evenodd" clip-rule="evenodd" d="M15.9648 3.89941H24.553V4.85366H35.0498V3.89941H44.1151V10.5792H15.9648V3.89941Z" stroke="#EF7F1A" stroke-width="1.80791" stroke-miterlimit="22.9256" stroke-linecap="round" stroke-linejoin="round"/>
<path d="M35.0498 1.51392H24.553V4.85379H35.0498V1.51392Z" stroke="#EF7F1A" stroke-width="1.80791" stroke-miterlimit="22.9256" stroke-linecap="round" stroke-linejoin="round"/>
<path fill-rule="evenodd" clip-rule="evenodd" d="M15.4877 15.3506H52.7034V51.1349C46.0236 53.0434 40.7753 59.246 40.7753 66.88H8.33081V21.5532L15.4877 15.3506V15.3506Z" stroke="#EF7F1A" stroke-width="1.80791" stroke-miterlimit="22.9256" stroke-linecap="round" stroke-linejoin="round"/>
<path fill-rule="evenodd" clip-rule="evenodd" d="M15.4877 15.3506L8.33081 21.5532H15.4877V15.3506Z" stroke="#EF7F1A" stroke-width="0.903955" stroke-miterlimit="22.9256" stroke-linecap="round" stroke-linejoin="round"/>
<path d="M21.2132 27.7556H14.0563V34.4354H21.2132V27.7556Z" stroke="#EF7F1A" stroke-width="0.903955" stroke-miterlimit="22.9256" stroke-linecap="round" stroke-linejoin="round"/>
<path d="M21.2132 41.1152H14.0563V47.795H21.2132V41.1152Z" stroke="#EF7F1A" stroke-width="0.903955" stroke-miterlimit="22.9256" stroke-linecap="round" stroke-linejoin="round"/>
<path d="M21.2132 53.5205H14.0563V60.2002H21.2132V53.5205Z" stroke="#EF7F1A" stroke-width="0.903955" stroke-miterlimit="22.9256" stroke-linecap="round" stroke-linejoin="round"/>
<path d="M25.5073 30.1414H47.455" stroke="#EF7F1A" stroke-width="0.903955" stroke-miterlimit="22.9256" stroke-linecap="round" stroke-linejoin="round"/>
<path d="M25.9844 32.5269H39.3439" stroke="#EF7F1A" stroke-width="0.903955" stroke-miterlimit="22.9256" stroke-linecap="round" stroke-linejoin="round"/>
<path d="M25.5073 43.0237H47.455" stroke="#EF7F1A" stroke-width="0.903955" stroke-miterlimit="22.9256" stroke-linecap="round" stroke-linejoin="round"/>
<path d="M25.9844 45.4094H39.3439" stroke="#EF7F1A" stroke-width="0.903955" stroke-miterlimit="22.9256" stroke-linecap="round" stroke-linejoin="round"/>
<path d="M25.5073 55.906H45.0694" stroke="#EF7F1A" stroke-width="0.903955" stroke-miterlimit="22.9256" stroke-linecap="round" stroke-linejoin="round"/>
<path d="M25.9844 58.2917H39.3439" stroke="#EF7F1A" stroke-width="0.903955" stroke-miterlimit="22.9256" stroke-linecap="round" stroke-linejoin="round"/>
<path d="M15.4877 31.0955L17.3962 33.004L20.2589 29.187" stroke="#EF7F1A" stroke-width="0.903955" stroke-miterlimit="22.9256" stroke-linecap="round" stroke-linejoin="round"/>
<path d="M15.4877 43.978L17.3962 46.3636L20.2589 42.5466" stroke="#EF7F1A" stroke-width="0.903955" stroke-miterlimit="22.9256" stroke-linecap="round" stroke-linejoin="round"/>
<path d="M15.4877 56.8604L17.3962 58.7689L20.2589 54.9519" stroke="#EF7F1A" stroke-width="0.903955" stroke-miterlimit="22.9256" stroke-linecap="round" stroke-linejoin="round"/>
<path d="M57.4746 84.0564C66.6974 84.0564 74.174 76.5799 74.174 67.3571C74.174 58.1343 66.6974 50.6577 57.4746 50.6577C48.2518 50.6577 40.7753 58.1343 40.7753 67.3571C40.7753 76.5799 48.2518 84.0564 57.4746 84.0564Z" stroke="#EF7F1A" stroke-width="1.80791" stroke-miterlimit="22.9256"/>
<path d="M67.0171 64.9714H61.7687V75.4682H67.0171V64.9714Z" stroke="#EF7F1A" stroke-width="0.903955" stroke-miterlimit="22.9256"/>
<path d="M61.7687 65.9257C60.8145 64.9715 59.3831 64.0172 58.906 63.063C57.9517 62.5858 57.4746 61.6316 57.4746 61.1545C56.9975 60.6773 56.9975 59.7231 56.9975 59.246C56.5203 58.2917 56.5203 57.8146 56.5203 57.3375C56.5203 57.3375 56.5203 56.8604 56.0432 56.8604C56.0432 56.8604 55.5661 56.8604 55.089 56.8604C54.6118 56.8604 54.6118 56.8604 54.6118 57.3375C54.1347 57.8146 54.1347 58.2917 54.1347 59.246C53.6576 59.7231 53.6576 60.6773 54.1347 61.6316C54.1347 62.5858 54.1347 63.063 54.6118 64.0172C54.6118 64.4943 55.089 64.4943 55.089 64.4943C55.089 64.9715 54.6118 64.9715 53.6576 64.9715C52.7034 64.9715 50.3177 64.9715 49.3635 64.9715C48.4092 64.9715 47.9321 64.9715 47.9321 64.9715C47.9321 65.4486 47.455 65.9257 47.455 65.9257C47.455 66.4028 47.455 66.88 47.455 66.88C47.9321 67.3571 47.9321 67.8342 48.4092 67.8342C48.4092 67.8342 48.4092 67.8342 48.4092 68.3113C47.9321 68.3113 47.9321 68.3113 47.9321 68.7885V69.2656C48.4092 69.7427 48.4092 70.2198 48.4092 70.2198C48.8864 70.2198 48.8864 70.2198 48.8864 70.697C48.8864 71.1741 48.4092 71.1741 48.4092 71.6512C48.4092 72.1283 48.8864 72.1283 48.8864 72.6055C49.3635 73.0826 49.8406 73.0826 49.8406 73.0826V73.5597C49.8406 73.5597 49.8406 73.5597 49.8406 74.0368C49.8406 74.0368 49.8406 74.5139 50.3177 74.9911C50.3177 74.9911 50.7949 75.4682 52.2262 75.4682C53.6576 75.4682 56.0432 75.4682 57.9517 74.9911C59.8602 74.9911 60.8145 74.5139 61.7687 74.0368" stroke="#EF7F1A" stroke-width="0.903955" stroke-miterlimit="22.9256"/>
</svg>
