<svg width="96" height="81" viewBox="0 0 96 81" fill="none" xmlns="http://www.w3.org/2000/svg">
<path d="M24.6087 0.75H91.1304C91.5652 0.75 92 1.18478 92 1.61957V72.9239C92 73.3587 91.5652 73.7935 91.1304 73.7935H24.6087C24.1739 73.7935 23.7391 73.3587 23.7391 72.9239V61.6196H25.4783V71.6196H90.2609V2.92391H25.4783V39.8804H23.7391V1.61957C23.7391 1.18478 24.1739 0.75 24.6087 0.75V0.75Z" fill="#EF7F1A"/>
<path fill-rule="evenodd" clip-rule="evenodd" d="M28.5217 5.96729H87.2174V68.576H28.5217V61.6195H31.5652V65.5325H53.3044V9.01076H31.5652V39.8803H28.5217V5.96729Z" stroke="#EF7F1A" stroke-width="0.869565" stroke-miterlimit="22.9256" stroke-linecap="round" stroke-linejoin="round"/>
<path fill-rule="evenodd" clip-rule="evenodd" d="M31.5652 9.01099H53.3043V65.5327H31.5652V61.6197H45.0435C47.2174 61.6197 49.3913 59.4458 49.3913 56.8371V44.2284C49.3913 42.0545 47.2174 39.8806 45.0435 39.8806H31.5652V9.01099V9.01099Z" stroke="#EF7F1A" stroke-width="0.869565" stroke-miterlimit="22.9256" stroke-linecap="round" stroke-linejoin="round"/>
<path fill-rule="evenodd" clip-rule="evenodd" d="M55.913 7.27173H85.913V67.2717H55.913V7.27173V7.27173ZM58.5217 10.3152H82.8696V64.2283H58.5217V36.8369H57.6522C57.2174 36.8369 56.7826 36.4022 56.7826 35.9674C56.7826 35.5326 57.2174 35.0978 57.6522 35.0978H58.5217V10.3152V10.3152Z" stroke="#EF7F1A" stroke-width="0.869565" stroke-miterlimit="22.9256" stroke-linecap="round" stroke-linejoin="round"/>
<path d="M94.1739 72.9238H20.2609V79.8804H94.1739V72.9238Z" stroke="#EF7F1A" stroke-width="2.17391" stroke-miterlimit="22.9256" stroke-linecap="round" stroke-linejoin="round"/>
<path d="M61.5652 35.0979H56.7826C56.3024 35.0979 55.913 35.4872 55.913 35.9675V36.4022C55.913 36.8825 56.3024 37.2718 56.7826 37.2718H61.5652C62.0455 37.2718 62.4348 36.8825 62.4348 36.4022V35.9675C62.4348 35.4872 62.0455 35.0979 61.5652 35.0979Z" stroke="#EF7F1A" stroke-width="0.869565" stroke-miterlimit="22.9256" stroke-linecap="round" stroke-linejoin="round"/>
<path fill-rule="evenodd" clip-rule="evenodd" d="M12.8696 39.8804H45.0435C47.2174 39.8804 49.3913 42.0543 49.3913 44.2282V56.8369C49.3913 59.4456 47.2174 61.6195 45.0435 61.6195H12.8696C11.1304 61.6195 9.3913 59.8804 8.95652 58.1412C5.04348 57.7065 2 54.663 2 50.7499C2 47.2717 5.04348 43.7934 8.95652 43.3586C9.3913 41.6195 11.1304 39.8804 12.8696 39.8804V39.8804Z" stroke="#EF7F1A" stroke-width="2.17391" stroke-miterlimit="22.9256"/>
<path d="M8.95652 53.3587C10.3973 53.3587 11.5652 52.1908 11.5652 50.7501C11.5652 49.3093 10.3973 48.1414 8.95652 48.1414C7.51578 48.1414 6.34782 49.3093 6.34782 50.7501C6.34782 52.1908 7.51578 53.3587 8.95652 53.3587Z" stroke="#EF7F1A" stroke-width="0.869565" stroke-miterlimit="22.9256"/>
<path d="M36.7826 49.4456H32.8696V57.2716H36.7826V49.4456Z" stroke="#EF7F1A" stroke-width="0.869565" stroke-miterlimit="22.9256"/>
<path d="M32.8696 50.3152C32 49.8804 30.6957 49.0108 30.2609 48.5761C29.8261 47.7065 29.3913 47.2717 29.3913 46.8369C29.3913 46.4021 28.9565 45.9674 28.9565 45.5326C28.9565 45.0978 28.9565 44.663 28.9565 44.2282C28.5217 43.7935 28.5217 43.7935 28.5217 43.7935C28.087 43.7935 28.087 43.7935 27.6522 43.7935C27.6522 43.7935 27.2174 43.7935 27.2174 44.2282C26.7826 44.2282 26.7826 44.663 26.7826 45.5326C26.7826 45.9674 26.7826 46.8369 26.7826 47.2717C26.7826 47.7065 26.7826 48.5761 27.2174 49.0108C27.2174 49.4456 27.6522 49.4456 27.6522 49.4456C27.6522 49.4456 27.6522 49.4456 26.7826 49.4456C25.913 49.4456 24.1739 49.4456 23.3043 49.8804C22.4348 49.8804 22.4348 49.8804 22.4348 49.8804C22.4348 49.8804 22 50.3152 22 50.75V51.1848C22 51.6195 22.4348 51.6195 22.4348 52.0543V52.4891V52.9239C22.4348 53.3587 22.8696 53.3587 22.8696 53.7935H23.3043C23.3043 53.7935 23.3043 53.7935 22.8696 54.2282C22.8696 54.2282 22.8696 54.2282 22.8696 54.663C22.8696 55.0978 22.8696 55.0978 23.3043 55.5326L23.7391 55.9674V56.4022C23.7391 56.8369 23.7391 56.8369 24.1739 57.2717C24.1739 57.2717 24.6087 57.2717 25.4783 57.7065C26.7826 57.7065 28.5217 57.7065 29.8261 57.2717C31.1304 57.2717 32 56.8369 32.8696 56.4022" stroke="#EF7F1A" stroke-width="0.869565" stroke-miterlimit="22.9256"/>
<path d="M9.82608 52.9239C9.82608 52.4891 9.82608 51.6195 9.3913 51.1848C8.95652 50.75 7.65217 50.75 6.34782 51.6195C4.60869 52.4891 3.30434 54.663 3.30434 56.4022C2.86956 58.5761 4.17391 61.1848 5.91304 62.9239C8.08695 64.2282 11.1304 65.5326 13.3043 66.4022C15.913 67.2717 17.6522 68.1413 18.5217 69.0108C19.8261 70.3152 19.8261 71.6195 20.2609 72.9239" stroke="#EF7F1A" stroke-width="0.869565" stroke-miterlimit="22.9256"/>
<path d="M12.8696 61.6196C14.6087 62.924 15.913 64.6631 16.7826 65.9675C18.087 67.2718 19.3913 68.1414 19.8261 69.0109C20.2609 70.3153 20.2609 71.6196 20.2609 72.924" stroke="#EF7F1A" stroke-width="0.869565" stroke-miterlimit="22.9256"/>
</svg>
