<svg width="24" height="22" viewBox="0 0 24 22" fill="none" xmlns="http://www.w3.org/2000/svg">
<path fill-rule="evenodd" clip-rule="evenodd" d="M23.4021 10.7602V20.068C23.4021 20.784 22.6266 21.5 21.8511 21.5H2.4637C0.91271 21.5 0.137215 20.784 0.137215 20.068V10.7602L11.7696 15.7721L23.4021 10.7602V10.7602Z" fill="#EF7F1A"/>
<path fill-rule="evenodd" clip-rule="evenodd" d="M2.4637 10.0442H4.01469V6.46431C4.01469 5.74832 4.79019 5.03234 5.56568 5.03234H18.7491C19.5246 5.03234 20.3001 5.74832 20.3001 6.46431V10.0442H21.8511C22.6266 10.0442 23.4021 9.32824 23.4021 8.61226V5.03234L11.7696 0.0204468L0.137215 5.03234V8.61226C0.137215 9.32824 0.91271 10.0442 2.4637 10.0442V10.0442Z" fill="#EF7F1A"/>
</svg>
