<svg width="27" height="27" viewBox="0 0 27 27" fill="none" xmlns="http://www.w3.org/2000/svg">
<path fill-rule="evenodd" clip-rule="evenodd" d="M4.957 0.699402C4.957 0.699402 4.13083 0.699402 4.13083 1.46217C3.30467 1.46217 3.30467 2.22494 2.4785 2.22494C2.4785 2.9877 2.4785 2.9877 1.65233 2.9877V4.51324C0.826167 4.51324 0.826167 4.51324 0.826167 4.51324C0.826167 4.51324 0.826167 4.51324 0.826167 5.27601V6.03877C0 6.03877 0 6.03877 0 6.80154V7.56431C0 8.32708 0 8.32708 0 8.32708C0 8.32708 0 8.32708 0 9.08984V9.85261C0 10.6154 0 10.6154 0 10.6154L0.826167 11.3781C0.826167 12.1409 0.826167 12.1409 0.826167 12.1409V12.9037L1.65233 13.6664C1.65233 14.4292 1.65233 14.4292 1.65233 14.4292C1.65233 14.4292 1.65233 14.4292 1.65233 15.192H2.4785V15.9548C2.4785 15.9548 2.4785 15.9548 3.30467 15.9548V16.7175L4.13083 17.4803C4.13083 17.4803 4.13083 17.4803 4.13083 18.2431C4.957 18.2431 4.13083 18.2431 4.13083 18.2431C4.957 18.2431 4.957 19.0058 5.78317 19.0058L6.60933 20.5314L7.4355 21.2941C8.26167 22.0569 8.26167 21.2941 8.26167 22.0569C8.26167 22.0569 9.08783 22.0569 9.08783 22.8197L10.7402 23.5824C10.7402 23.5824 10.7402 23.5824 10.7402 24.3452C10.7402 24.3452 10.7402 24.3452 11.5663 24.3452C12.3925 24.3452 11.5663 24.3452 12.3925 24.3452L13.2187 25.108C14.0448 25.108 14.0448 25.8707 14.0448 25.8707H14.871C15.6972 25.8707 15.6972 25.8707 15.6972 25.8707C15.6972 25.8707 15.6972 25.8707 16.5233 25.8707L17.3495 26.6335H19.0018L20.6542 25.8707H21.4803C21.4803 25.8707 21.4803 25.8707 22.3065 25.108C23.1327 25.108 23.1327 25.108 23.1327 25.108L23.9588 24.3452C23.9588 23.5824 23.9588 23.5824 24.785 23.5824L25.6112 22.8197C25.6112 22.8197 25.6112 22.8197 25.6112 22.0569V21.2941C25.6112 20.5314 25.6112 20.5314 25.6112 20.5314C24.785 20.5314 24.785 20.5314 24.785 20.5314C24.785 19.7686 24.785 20.5314 24.785 19.7686C23.9588 19.7686 23.9588 19.7686 23.9588 19.7686C23.9588 19.0058 23.9588 19.0058 23.9588 19.0058C23.9588 19.0058 23.9588 19.0058 23.1327 19.0058L21.4803 17.4803H20.6542L19.828 16.7175L19.0018 17.4803H18.1757C18.1757 17.4803 18.1757 17.4803 17.3495 18.2431H16.5233C16.5233 19.0058 15.6972 19.0058 15.6972 19.7686H14.871H14.0448C14.0448 19.7686 13.2187 19.7686 13.2187 19.0058C13.2187 19.0058 13.2187 19.0058 12.3925 19.0058L10.7402 17.4803C10.7402 16.7175 9.08783 15.9547 9.08783 15.192C8.26167 15.192 9.08783 15.192 8.26167 15.192C8.26167 15.192 8.26167 15.192 8.26167 14.4292L7.4355 13.6664V12.9037C6.60933 12.1409 6.60933 11.3781 6.60933 11.3781C6.60933 10.6154 7.4355 10.6154 7.4355 9.85261C7.4355 9.85261 7.4355 9.85261 8.26167 9.85261L9.08783 9.08984C9.08783 8.32708 9.08783 8.32708 9.08783 8.32708C9.914 7.56431 10.7402 7.56431 9.914 6.80154V6.03877V5.27601V4.51324L9.08783 3.75047L8.26167 2.9877C8.26167 2.22494 8.26167 2.22494 8.26167 2.22494H7.4355V1.46217C7.4355 1.46217 6.60933 1.46217 6.60933 0.699402H5.78317H4.957V0.699402ZM13.2187 9.85261H14.0448C14.0448 9.85261 14.871 10.6154 15.6972 10.6154H16.5233C16.5233 11.3781 17.3495 11.3781 17.3495 11.3781V12.1409C17.3495 12.1409 18.1757 12.1409 18.1757 12.9037V13.6664C18.1757 13.6664 18.1757 13.6664 18.1757 14.4292L19.0018 15.192H21.4803V14.4292L20.6542 13.6664V12.9037V12.1409C20.6542 12.1409 20.6542 12.1409 20.6542 11.3781H19.828V10.6154H19.0018C19.0018 9.85261 19.0018 10.6154 19.0018 9.85261C18.1757 9.85261 18.1757 9.85261 18.1757 9.08984C17.3495 9.08984 17.3495 9.08984 17.3495 9.08984C17.3495 8.32708 15.6972 8.32708 15.6972 8.32708H14.871L14.0448 7.56431H13.2187V9.85261V9.85261ZM13.2187 5.27601H14.0448H14.871C14.871 5.27601 14.871 5.27601 14.871 6.03877H15.6972C16.5233 6.03877 16.5233 6.03877 17.3495 6.03877C17.3495 6.03877 18.1757 6.80154 19.0018 6.80154L19.828 7.56431C20.6542 7.56431 19.828 7.56431 20.6542 7.56431C20.6542 8.32708 20.6542 8.32708 20.6542 8.32708C21.4803 8.32708 21.4803 8.32708 21.4803 9.08984L22.3065 9.85261L23.1327 11.3781C23.1327 12.1409 23.1327 12.1409 23.1327 12.9037L23.9588 13.6664V15.192H24.785C25.6112 14.4292 25.6112 15.192 26.4373 15.192V14.4292V13.6664L25.6112 12.9037V12.1409V11.3781V10.6154L24.785 9.85261C24.785 9.85261 24.785 9.85261 24.785 9.08984C23.9588 9.08984 23.9588 8.32708 23.9588 8.32708C23.9588 8.32708 23.9588 8.32708 23.9588 7.56431C23.9588 7.56431 23.9588 7.56431 23.1327 7.56431C23.1327 6.80154 23.1327 6.80154 23.1327 6.80154C23.1327 6.80154 23.1327 6.80154 22.3065 6.80154C22.3065 6.80154 22.3065 6.80154 22.3065 6.03877C21.4803 6.03877 21.4803 6.03877 21.4803 6.03877C21.4803 5.27601 21.4803 5.27601 21.4803 5.27601H20.6542C20.6542 5.27601 19.828 5.27601 19.828 4.51324H19.0018C19.0018 4.51324 19.0018 4.51324 18.1757 4.51324C18.1757 3.75047 18.1757 3.75047 18.1757 3.75047H17.3495H16.5233H15.6972V2.9877H14.871C14.0448 2.9877 14.0448 2.9877 14.0448 2.9877H13.2187V5.27601V5.27601Z" fill="#EF7F1A"/>
</svg>
