<svg width="21" height="20" viewBox="0 0 21 20" fill="none" xmlns="http://www.w3.org/2000/svg">
<path d="M10.125 0C8.14719 0 6.21379 0.58649 4.5693 1.6853C2.92481 2.78412 1.64309 4.3459 0.886209 6.17316C0.129333 8.00043 -0.0687005 10.0111 0.317152 11.9509C0.703004 13.8907 1.65541 15.6725 3.05394 17.0711C4.45246 18.4696 6.23429 19.422 8.1741 19.8078C10.1139 20.1937 12.1246 19.9957 13.9518 19.2388C15.7791 18.4819 17.3409 17.2002 18.4397 15.5557C19.5385 13.9112 20.125 11.9778 20.125 10C20.1219 7.34879 19.0673 4.80707 17.1926 2.93239C15.3179 1.0577 12.7762 0.0031277 10.125 0ZM13.495 13.37C13.3245 13.5404 13.0933 13.6362 12.8523 13.6362C12.6112 13.6362 12.38 13.5404 12.2095 13.37L9.48228 10.6427C9.31178 10.4723 9.21596 10.2411 9.21591 10V4.54545C9.21591 4.30435 9.31169 4.07312 9.48218 3.90263C9.65267 3.73214 9.8839 3.63636 10.125 3.63636C10.3661 3.63636 10.5973 3.73214 10.7678 3.90263C10.9383 4.07312 11.0341 4.30435 11.0341 4.54545V9.62364L13.495 12.0845C13.6654 12.255 13.7612 12.4862 13.7612 12.7273C13.7612 12.9683 13.6654 13.1995 13.495 13.37Z" fill="#EF7F1A"/>
</svg>
