<svg width="18" height="18" viewBox="0 0 18 18" fill="none" xmlns="http://www.w3.org/2000/svg">
<path fill-rule="evenodd" clip-rule="evenodd" d="M2.25 9C2.25 5.27208 5.27208 2.25 9 2.25C12.728 2.25 15.75 5.27208 15.75 9C15.75 12.728 12.728 15.75 9 15.75C5.27208 15.75 2.25 12.728 2.25 9ZM9.32925 7.34492C9.65655 7.41003 9.95722 7.57073 10.1932 7.80675C10.4129 8.02643 10.7691 8.02643 10.9888 7.80675C11.2084 7.58708 11.2084 7.23093 10.9888 7.01126C10.5954 6.61792 10.0942 6.35006 9.5487 6.24154C9.00315 6.13302 8.43765 6.18871 7.92368 6.40159C7.40978 6.61446 6.97053 6.97494 6.66149 7.43746C6.35245 7.89997 6.1875 8.44373 6.1875 9C6.1875 9.55627 6.35245 10.1 6.66149 10.5625C6.97053 11.0251 7.40978 11.3855 7.92368 11.5984C8.43765 11.8113 9.00315 11.867 9.5487 11.7584C10.0942 11.6499 10.5954 11.3821 10.9888 10.9887C11.2084 10.7691 11.2084 10.4129 10.9888 10.1932C10.7691 9.97357 10.4129 9.97357 10.1932 10.1932C9.95722 10.4293 9.65655 10.5899 9.32925 10.6551C9.00188 10.7202 8.66257 10.6868 8.35425 10.559C8.04585 10.4313 7.7823 10.215 7.5969 9.9375C7.41147 9.66 7.3125 9.33375 7.3125 9C7.3125 8.66625 7.41147 8.34 7.5969 8.0625C7.7823 7.785 8.04585 7.5687 8.35425 7.44095C8.66257 7.31323 9.00188 7.27981 9.32925 7.34492Z" fill="#EF7F04"/>
</svg>
