<svg width="22" height="22" viewBox="0 0 22 22" fill="none" xmlns="http://www.w3.org/2000/svg">
<path d="M8.66361 7.67363L8.07621 4.73663C7.92221 3.96553 7.24461 3.41003 6.45811 3.41003H2.90181C1.95581 3.41003 1.16821 4.20973 1.21111 5.15463C1.71821 16.3317 7.26001 20.5821 17.0676 21.0089C18.0125 21.0496 18.81 20.2653 18.81 19.3204V15.7619C18.81 14.9754 18.2545 14.2978 17.4834 14.1438L14.5464 13.5564C13.8171 13.4101 13.0801 13.7709 12.7468 14.4364L12.21 15.5089C10.01 15.5089 6.71001 12.2089 6.71001 10.0089L7.78251 9.47213C8.44911 9.13993 8.80991 8.40293 8.66361 7.67363Z" fill="#EF7F1A"/>
</svg>
